<svg xmlns="http://www.w3.org/2000/svg" xmlns:xlink="http://www.w3.org/1999/xlink" width="500" zoomAndPan="magnify" viewBox="0 0 375 374.999991" height="500" preserveAspectRatio="xMidYMid meet" version="1.0"><defs><g/><clipPath id="c399bad751"><path d="M 135 124 L 239.890625 124 L 239.890625 222.691406 L 135 222.691406 Z M 135 124 " clip-rule="nonzero"/></clipPath><clipPath id="dd45e57b4e"><path d="M 166 89.191406 L 209 89.191406 L 209 119 L 166 119 Z M 166 89.191406 " clip-rule="nonzero"/></clipPath></defs><g clip-path="url(#c399bad751)"><path fill="#ffc300" d="M 239.539062 212.824219 L 230.710938 131.761719 C 230.234375 127.390625 226.539062 124.074219 222.148438 124.074219 L 152.847656 124.074219 C 148.453125 124.074219 144.761719 127.390625 144.28125 131.761719 L 135.457031 212.824219 C 134.90625 217.921875 138.894531 222.375 144.019531 222.375 L 230.972656 222.375 C 236.101562 222.375 240.089844 217.921875 239.539062 212.824219 Z M 190.664062 159.378906 L 206.757812 159.378906 L 206.757812 164.085938 L 190.664062 164.085938 Z M 176.621094 156.113281 C 179.71875 156.113281 182.238281 158.632812 182.238281 161.730469 C 182.238281 164.839844 179.71875 167.355469 176.621094 167.355469 C 173.511719 167.355469 170.996094 164.839844 170.996094 161.730469 C 170.996094 158.632812 173.511719 156.113281 176.621094 156.113281 Z M 187.492188 191.472656 C 177.589844 191.472656 168.171875 187.730469 160.964844 180.9375 L 165.582031 176.039062 C 171.535156 181.65625 179.316406 184.746094 187.492188 184.746094 C 195.675781 184.746094 203.460938 181.65625 209.414062 176.039062 L 214.027344 180.9375 C 206.824219 187.730469 197.398438 191.472656 187.492188 191.472656 Z M 187.492188 191.472656 " fill-opacity="1" fill-rule="nonzero"/></g><g clip-path="url(#dd45e57b4e)"><path fill="#000000" d="M 187.496094 89.539062 C 175.914062 89.539062 166.488281 98.960938 166.488281 110.546875 L 166.488281 118.96875 L 173.835938 118.96875 L 173.835938 110.546875 C 173.835938 103.019531 179.960938 96.890625 187.496094 96.890625 C 195.03125 96.890625 201.160156 103.019531 201.160156 110.546875 L 201.160156 118.96875 L 208.503906 118.96875 L 208.503906 110.546875 C 208.503906 98.960938 199.082031 89.539062 187.496094 89.539062 Z M 187.496094 89.539062 " fill-opacity="1" fill-rule="nonzero"/></g><g fill="#242424" fill-opacity="1"><g transform="translate(78.618936, 273.638581)"><g><path d="M 25.78125 -28.9375 L 12.015625 -28.9375 L 12.015625 -20.96875 L 24.4375 -20.96875 L 24.4375 -13.875 L 12.015625 -13.875 L 12.015625 0 L 4.140625 0 L 4.140625 -36.234375 L 25.78125 -36.234375 Z M 25.78125 -28.9375 "/></g></g></g><g fill="#242424" fill-opacity="1"><g transform="translate(103.360772, 273.638581)"><g><path d="M 16.40625 0.78125 C 13.78125 0.78125 11.472656 0.253906 9.484375 -0.796875 C 7.503906 -1.847656 5.972656 -3.316406 4.890625 -5.203125 C 3.804688 -7.085938 3.265625 -9.285156 3.265625 -11.796875 L 3.265625 -27.953125 L 10.8125 -27.953125 L 10.8125 -12.6875 C 10.8125 -10.6875 11.300781 -9.125 12.28125 -8 C 13.269531 -6.875 14.644531 -6.3125 16.40625 -6.3125 C 18.164062 -6.3125 19.53125 -6.878906 20.5 -8.015625 C 21.46875 -9.160156 21.953125 -10.71875 21.953125 -12.6875 L 21.953125 -27.953125 L 29.5 -27.953125 L 29.5 -11.796875 C 29.5 -9.285156 28.957031 -7.085938 27.875 -5.203125 C 26.789062 -3.316406 25.265625 -1.847656 23.296875 -0.796875 C 21.328125 0.253906 19.03125 0.78125 16.40625 0.78125 Z M 16.40625 0.78125 "/></g></g></g><g fill="#242424" fill-opacity="1"><g transform="translate(133.17527, 273.638581)"><g><path d="M 19.5625 -28.625 C 22.738281 -28.625 25.25 -27.5625 27.09375 -25.4375 C 28.945312 -23.320312 29.875 -20.484375 29.875 -16.921875 L 29.875 0 L 22.3125 0 L 22.3125 -15.734375 C 22.3125 -19.910156 20.6875 -22 17.4375 -22 C 15.507812 -22 13.984375 -21.34375 12.859375 -20.03125 C 11.742188 -18.71875 11.1875 -16.941406 11.1875 -14.703125 L 11.1875 0 L 3.625 0 L 3.625 -27.953125 L 8.796875 -27.953125 L 10.296875 -24.484375 C 11.335938 -25.765625 12.664062 -26.773438 14.28125 -27.515625 C 15.90625 -28.253906 17.664062 -28.625 19.5625 -28.625 Z M 19.5625 -28.625 "/></g></g></g><g fill="#242424" fill-opacity="1"><g transform="translate(171.142272, 274.146472)"><g><path d="M 15.734375 0.46875 C 13.078125 0.46875 10.75 -0.00390625 8.75 -0.953125 C 6.75 -1.898438 5.1875 -3.242188 4.0625 -4.984375 C 2.9375 -6.734375 2.375 -8.800781 2.375 -11.1875 L 6.984375 -11.1875 C 6.984375 -8.90625 7.8125 -7.132812 9.46875 -5.875 C 11.125 -4.613281 13.195312 -3.984375 15.6875 -3.984375 C 17.207031 -3.984375 18.585938 -4.234375 19.828125 -4.734375 C 21.066406 -5.234375 22.046875 -5.957031 22.765625 -6.90625 C 23.492188 -7.851562 23.859375 -8.96875 23.859375 -10.25 C 23.859375 -11.664062 23.4375 -12.757812 22.59375 -13.53125 C 21.75 -14.3125 20.632812 -14.925781 19.25 -15.375 C 17.875 -15.820312 16.410156 -16.21875 14.859375 -16.5625 C 13.441406 -16.90625 12.039062 -17.285156 10.65625 -17.703125 C 9.28125 -18.117188 8.015625 -18.679688 6.859375 -19.390625 C 5.703125 -20.097656 4.773438 -21.03125 4.078125 -22.1875 C 3.390625 -23.34375 3.046875 -24.816406 3.046875 -26.609375 C 3.046875 -29.742188 4.164062 -32.207031 6.40625 -34 C 8.65625 -35.800781 11.644531 -36.703125 15.375 -36.703125 C 19.132812 -36.703125 22.09375 -35.734375 24.25 -33.796875 C 26.40625 -31.867188 27.484375 -29.265625 27.484375 -25.984375 L 22.984375 -25.984375 C 22.984375 -27.984375 22.257812 -29.546875 20.8125 -30.671875 C 19.363281 -31.796875 17.535156 -32.359375 15.328125 -32.359375 C 13.117188 -32.359375 11.28125 -31.863281 9.8125 -30.875 C 8.34375 -29.894531 7.609375 -28.539062 7.609375 -26.8125 C 7.609375 -25.46875 8.019531 -24.421875 8.84375 -23.671875 C 9.675781 -22.929688 10.753906 -22.347656 12.078125 -21.921875 C 13.410156 -21.492188 14.851562 -21.109375 16.40625 -20.765625 C 17.820312 -20.410156 19.242188 -20.007812 20.671875 -19.5625 C 22.109375 -19.113281 23.421875 -18.523438 24.609375 -17.796875 C 25.804688 -17.078125 26.753906 -16.113281 27.453125 -14.90625 C 28.160156 -13.695312 28.515625 -12.160156 28.515625 -10.296875 C 28.515625 -8.023438 27.953125 -6.085938 26.828125 -4.484375 C 25.710938 -2.878906 24.1875 -1.648438 22.25 -0.796875 C 20.320312 0.046875 18.148438 0.46875 15.734375 0.46875 Z M 15.734375 0.46875 "/></g></g></g><g fill="#242424" fill-opacity="1"><g transform="translate(199.09334, 274.146472)"><g><path d="M 16 -4.09375 L 19.046875 -4.09375 L 19.046875 0 L 15.421875 0 C 12.421875 0 10.054688 -0.867188 8.328125 -2.609375 C 6.609375 -4.359375 5.75 -6.75 5.75 -9.78125 L 5.75 -23.96875 L 0.828125 -23.96875 L 0.828125 -24.75 L 9.46875 -33.859375 L 10.140625 -33.859375 L 10.140625 -27.953125 L 18.890625 -27.953125 L 18.890625 -23.96875 L 10.140625 -23.96875 L 10.140625 -9.9375 C 10.140625 -8.039062 10.640625 -6.59375 11.640625 -5.59375 C 12.648438 -4.59375 14.101562 -4.09375 16 -4.09375 Z M 16 -4.09375 "/></g></g></g><g fill="#242424" fill-opacity="1"><g transform="translate(216.640287, 274.146472)"><g><path d="M 17.03125 0.625 C 14.195312 0.625 11.664062 -0.0078125 9.4375 -1.28125 C 7.21875 -2.5625 5.457031 -4.296875 4.15625 -6.484375 C 2.863281 -8.679688 2.21875 -11.179688 2.21875 -13.984375 C 2.21875 -16.773438 2.863281 -19.273438 4.15625 -21.484375 C 5.457031 -23.691406 7.21875 -25.425781 9.4375 -26.6875 C 11.664062 -27.945312 14.195312 -28.578125 17.03125 -28.578125 C 19.863281 -28.578125 22.398438 -27.9375 24.640625 -26.65625 C 26.878906 -25.382812 28.644531 -23.648438 29.9375 -21.453125 C 31.238281 -19.265625 31.890625 -16.773438 31.890625 -13.984375 C 31.890625 -11.179688 31.238281 -8.679688 29.9375 -6.484375 C 28.644531 -4.296875 26.878906 -2.5625 24.640625 -1.28125 C 22.398438 -0.0078125 19.863281 0.625 17.03125 0.625 Z M 17.03125 -3.625 C 19.03125 -3.625 20.804688 -4.070312 22.359375 -4.96875 C 23.910156 -5.863281 25.132812 -7.085938 26.03125 -8.640625 C 26.9375 -10.191406 27.390625 -11.972656 27.390625 -13.984375 C 27.390625 -15.984375 26.9375 -17.757812 26.03125 -19.3125 C 25.132812 -20.863281 23.910156 -22.085938 22.359375 -22.984375 C 20.804688 -23.878906 19.03125 -24.328125 17.03125 -24.328125 C 15.03125 -24.328125 13.253906 -23.878906 11.703125 -22.984375 C 10.148438 -22.085938 8.929688 -20.863281 8.046875 -19.3125 C 7.171875 -17.757812 6.734375 -15.984375 6.734375 -13.984375 C 6.734375 -11.972656 7.171875 -10.191406 8.046875 -8.640625 C 8.929688 -7.085938 10.15625 -5.863281 11.71875 -4.96875 C 13.289062 -4.070312 15.0625 -3.625 17.03125 -3.625 Z M 17.03125 -3.625 "/></g></g></g><g fill="#242424" fill-opacity="1"><g transform="translate(247.800585, 274.146472)"><g><path d="M 17.1875 -28.109375 L 19.671875 -28.109375 L 19.671875 -23.921875 L 16.828125 -23.921875 C 14.273438 -23.921875 12.304688 -23.140625 10.921875 -21.578125 C 9.546875 -20.023438 8.859375 -17.890625 8.859375 -15.171875 L 8.859375 0 L 4.453125 0 L 4.453125 -27.953125 L 7.5625 -27.953125 L 8.28125 -23.703125 C 9.28125 -25.117188 10.515625 -26.207031 11.984375 -26.96875 C 13.453125 -27.726562 15.1875 -28.109375 17.1875 -28.109375 Z M 17.1875 -28.109375 "/></g></g></g><g fill="#242424" fill-opacity="1"><g transform="translate(264.829919, 274.146472)"><g><path d="M 30.59375 -13.875 C 30.59375 -13.59375 30.570312 -13.320312 30.53125 -13.0625 C 30.5 -12.8125 30.484375 -12.546875 30.484375 -12.265625 L 6.625 -12.265625 C 6.96875 -9.679688 8.035156 -7.601562 9.828125 -6.03125 C 11.628906 -4.457031 13.84375 -3.671875 16.46875 -3.671875 C 18.394531 -3.671875 20.117188 -4.101562 21.640625 -4.96875 C 23.160156 -5.832031 24.347656 -7.023438 25.203125 -8.546875 L 29.8125 -8.546875 C 28.644531 -5.640625 26.882812 -3.382812 24.53125 -1.78125 C 22.1875 -0.175781 19.5 0.625 16.46875 0.625 C 13.769531 0.625 11.34375 -0.0078125 9.1875 -1.28125 C 7.03125 -2.5625 5.328125 -4.304688 4.078125 -6.515625 C 2.835938 -8.722656 2.21875 -11.210938 2.21875 -13.984375 C 2.21875 -16.742188 2.835938 -19.226562 4.078125 -21.4375 C 5.328125 -23.644531 7.03125 -25.382812 9.1875 -26.65625 C 11.34375 -27.9375 13.769531 -28.578125 16.46875 -28.578125 C 19.289062 -28.578125 21.765625 -27.921875 23.890625 -26.609375 C 26.015625 -25.296875 27.660156 -23.523438 28.828125 -21.296875 C 30.003906 -19.078125 30.59375 -16.601562 30.59375 -13.875 Z M 16.46875 -24.375 C 13.945312 -24.375 11.8125 -23.640625 10.0625 -22.171875 C 8.320312 -20.710938 7.210938 -18.773438 6.734375 -16.359375 L 26.140625 -16.359375 C 25.691406 -18.835938 24.585938 -20.789062 22.828125 -22.21875 C 21.066406 -23.65625 18.945312 -24.375 16.46875 -24.375 Z M 16.46875 -24.375 "/></g></g></g><g fill="#272727" fill-opacity="1"><g transform="translate(120.044087, 294.016329)"><g><path d="M 4.234375 0.0625 C 3.535156 0.0625 2.898438 -0.09375 2.328125 -0.40625 C 1.765625 -0.71875 1.320312 -1.144531 1 -1.6875 C 0.6875 -2.238281 0.53125 -2.851562 0.53125 -3.53125 C 0.53125 -4.207031 0.6875 -4.816406 1 -5.359375 C 1.320312 -5.910156 1.765625 -6.34375 2.328125 -6.65625 C 2.898438 -6.96875 3.535156 -7.125 4.234375 -7.125 C 4.941406 -7.125 5.570312 -6.96875 6.125 -6.65625 C 6.6875 -6.351562 7.128906 -5.925781 7.453125 -5.375 C 7.773438 -4.820312 7.9375 -4.207031 7.9375 -3.53125 C 7.9375 -2.851562 7.773438 -2.238281 7.453125 -1.6875 C 7.128906 -1.144531 6.6875 -0.71875 6.125 -0.40625 C 5.570312 -0.09375 4.941406 0.0625 4.234375 0.0625 Z M 4.234375 -0.609375 C 4.796875 -0.609375 5.300781 -0.734375 5.75 -0.984375 C 6.195312 -1.234375 6.550781 -1.582031 6.8125 -2.03125 C 7.070312 -2.476562 7.203125 -2.976562 7.203125 -3.53125 C 7.203125 -4.082031 7.070312 -4.582031 6.8125 -5.03125 C 6.550781 -5.476562 6.195312 -5.828125 5.75 -6.078125 C 5.300781 -6.328125 4.796875 -6.453125 4.234375 -6.453125 C 3.679688 -6.453125 3.175781 -6.328125 2.71875 -6.078125 C 2.257812 -5.828125 1.898438 -5.476562 1.640625 -5.03125 C 1.390625 -4.582031 1.265625 -4.082031 1.265625 -3.53125 C 1.265625 -2.976562 1.390625 -2.476562 1.640625 -2.03125 C 1.898438 -1.582031 2.257812 -1.234375 2.71875 -0.984375 C 3.175781 -0.734375 3.679688 -0.609375 4.234375 -0.609375 Z M 4.234375 -0.609375 "/></g></g></g><g fill="#272727" fill-opacity="1"><g transform="translate(131.023309, 294.016329)"><g><path d="M 7.0625 -7.0625 L 7.0625 0 L 6.4375 0 L 1.890625 -5.734375 L 1.890625 0 L 1.15625 0 L 1.15625 -7.0625 L 1.765625 -7.0625 L 6.3125 -1.328125 L 6.3125 -7.0625 Z M 7.0625 -7.0625 "/></g></g></g><g fill="#272727" fill-opacity="1"><g transform="translate(141.740508, 294.016329)"><g><path d="M 1.15625 -7.0625 L 1.890625 -7.0625 L 1.890625 -0.640625 L 5.859375 -0.640625 L 5.859375 0 L 1.15625 0 Z M 1.15625 -7.0625 "/></g></g></g><g fill="#272727" fill-opacity="1"><g transform="translate(150.2002, 294.016329)"><g><path d="M 1.15625 -7.0625 L 1.890625 -7.0625 L 1.890625 0 L 1.15625 0 Z M 1.15625 -7.0625 "/></g></g></g><g fill="#272727" fill-opacity="1"><g transform="translate(155.767464, 294.016329)"><g><path d="M 7.0625 -7.0625 L 7.0625 0 L 6.4375 0 L 1.890625 -5.734375 L 1.890625 0 L 1.15625 0 L 1.15625 -7.0625 L 1.765625 -7.0625 L 6.3125 -1.328125 L 6.3125 -7.0625 Z M 7.0625 -7.0625 "/></g></g></g><g fill="#272727" fill-opacity="1"><g transform="translate(166.484661, 294.016329)"><g><path d="M 6.140625 -0.640625 L 6.140625 0 L 1.15625 0 L 1.15625 -7.0625 L 6 -7.0625 L 6 -6.421875 L 1.890625 -6.421875 L 1.890625 -3.90625 L 5.546875 -3.90625 L 5.546875 -3.265625 L 1.890625 -3.265625 L 1.890625 -0.640625 Z M 6.140625 -0.640625 "/></g></g></g><g fill="#272727" fill-opacity="1"><g transform="translate(175.75061, 294.016329)"><g/></g></g><g fill="#272727" fill-opacity="1"><g transform="translate(180.914756, 294.016329)"><g><path d="M 3.09375 0.0625 C 2.570312 0.0625 2.070312 -0.0195312 1.59375 -0.1875 C 1.113281 -0.351562 0.738281 -0.578125 0.46875 -0.859375 L 0.765625 -1.4375 C 1.023438 -1.175781 1.363281 -0.96875 1.78125 -0.8125 C 2.207031 -0.65625 2.644531 -0.578125 3.09375 -0.578125 C 3.726562 -0.578125 4.203125 -0.691406 4.515625 -0.921875 C 4.835938 -1.148438 5 -1.453125 5 -1.828125 C 5 -2.109375 4.910156 -2.332031 4.734375 -2.5 C 4.566406 -2.664062 4.359375 -2.796875 4.109375 -2.890625 C 3.859375 -2.984375 3.507812 -3.082031 3.0625 -3.1875 C 2.53125 -3.320312 2.109375 -3.453125 1.796875 -3.578125 C 1.484375 -3.703125 1.210938 -3.890625 0.984375 -4.140625 C 0.753906 -4.398438 0.640625 -4.75 0.640625 -5.1875 C 0.640625 -5.539062 0.734375 -5.863281 0.921875 -6.15625 C 1.117188 -6.445312 1.410156 -6.679688 1.796875 -6.859375 C 2.179688 -7.035156 2.664062 -7.125 3.25 -7.125 C 3.65625 -7.125 4.050781 -7.066406 4.4375 -6.953125 C 4.820312 -6.847656 5.15625 -6.695312 5.4375 -6.5 L 5.1875 -5.90625 C 4.894531 -6.101562 4.578125 -6.25 4.234375 -6.34375 C 3.898438 -6.4375 3.570312 -6.484375 3.25 -6.484375 C 2.632812 -6.484375 2.171875 -6.363281 1.859375 -6.125 C 1.546875 -5.894531 1.390625 -5.585938 1.390625 -5.203125 C 1.390625 -4.921875 1.472656 -4.691406 1.640625 -4.515625 C 1.804688 -4.347656 2.019531 -4.21875 2.28125 -4.125 C 2.539062 -4.039062 2.890625 -3.941406 3.328125 -3.828125 C 3.847656 -3.703125 4.265625 -3.578125 4.578125 -3.453125 C 4.898438 -3.328125 5.171875 -3.140625 5.390625 -2.890625 C 5.617188 -2.640625 5.734375 -2.300781 5.734375 -1.875 C 5.734375 -1.507812 5.632812 -1.179688 5.4375 -0.890625 C 5.25 -0.597656 4.957031 -0.363281 4.5625 -0.1875 C 4.164062 -0.0195312 3.675781 0.0625 3.09375 0.0625 Z M 3.09375 0.0625 "/></g></g></g><g fill="#272727" fill-opacity="1"><g transform="translate(189.636481, 294.016329)"><g><path d="M 7.0625 -7.0625 L 7.0625 0 L 6.3125 0 L 6.3125 -3.265625 L 1.890625 -3.265625 L 1.890625 0 L 1.15625 0 L 1.15625 -7.0625 L 1.890625 -7.0625 L 1.890625 -3.921875 L 6.3125 -3.921875 L 6.3125 -7.0625 Z M 7.0625 -7.0625 "/></g></g></g><g fill="#272727" fill-opacity="1"><g transform="translate(200.353677, 294.016329)"><g><path d="M 4.234375 0.0625 C 3.535156 0.0625 2.898438 -0.09375 2.328125 -0.40625 C 1.765625 -0.71875 1.320312 -1.144531 1 -1.6875 C 0.6875 -2.238281 0.53125 -2.851562 0.53125 -3.53125 C 0.53125 -4.207031 0.6875 -4.816406 1 -5.359375 C 1.320312 -5.910156 1.765625 -6.34375 2.328125 -6.65625 C 2.898438 -6.96875 3.535156 -7.125 4.234375 -7.125 C 4.941406 -7.125 5.570312 -6.96875 6.125 -6.65625 C 6.6875 -6.351562 7.128906 -5.925781 7.453125 -5.375 C 7.773438 -4.820312 7.9375 -4.207031 7.9375 -3.53125 C 7.9375 -2.851562 7.773438 -2.238281 7.453125 -1.6875 C 7.128906 -1.144531 6.6875 -0.71875 6.125 -0.40625 C 5.570312 -0.09375 4.941406 0.0625 4.234375 0.0625 Z M 4.234375 -0.609375 C 4.796875 -0.609375 5.300781 -0.734375 5.75 -0.984375 C 6.195312 -1.234375 6.550781 -1.582031 6.8125 -2.03125 C 7.070312 -2.476562 7.203125 -2.976562 7.203125 -3.53125 C 7.203125 -4.082031 7.070312 -4.582031 6.8125 -5.03125 C 6.550781 -5.476562 6.195312 -5.828125 5.75 -6.078125 C 5.300781 -6.328125 4.796875 -6.453125 4.234375 -6.453125 C 3.679688 -6.453125 3.175781 -6.328125 2.71875 -6.078125 C 2.257812 -5.828125 1.898438 -5.476562 1.640625 -5.03125 C 1.390625 -4.582031 1.265625 -4.082031 1.265625 -3.53125 C 1.265625 -2.976562 1.390625 -2.476562 1.640625 -2.03125 C 1.898438 -1.582031 2.257812 -1.234375 2.71875 -0.984375 C 3.175781 -0.734375 3.679688 -0.609375 4.234375 -0.609375 Z M 4.234375 -0.609375 "/></g></g></g><g fill="#272727" fill-opacity="1"><g transform="translate(211.332898, 294.016329)"><g><path d="M 3.796875 -7.0625 C 4.691406 -7.0625 5.394531 -6.847656 5.90625 -6.421875 C 6.425781 -5.992188 6.6875 -5.398438 6.6875 -4.640625 C 6.6875 -3.890625 6.425781 -3.300781 5.90625 -2.875 C 5.394531 -2.445312 4.691406 -2.234375 3.796875 -2.234375 L 1.890625 -2.234375 L 1.890625 0 L 1.15625 0 L 1.15625 -7.0625 Z M 3.78125 -2.890625 C 4.476562 -2.890625 5.007812 -3.039062 5.375 -3.34375 C 5.75 -3.65625 5.9375 -4.085938 5.9375 -4.640625 C 5.9375 -5.210938 5.75 -5.648438 5.375 -5.953125 C 5.007812 -6.265625 4.476562 -6.421875 3.78125 -6.421875 L 1.890625 -6.421875 L 1.890625 -2.890625 Z M 3.78125 -2.890625 "/></g></g></g><g fill="#272727" fill-opacity="1"><g transform="translate(221.092676, 294.016329)"><g><path d="M 3.796875 -7.0625 C 4.691406 -7.0625 5.394531 -6.847656 5.90625 -6.421875 C 6.425781 -5.992188 6.6875 -5.398438 6.6875 -4.640625 C 6.6875 -3.890625 6.425781 -3.300781 5.90625 -2.875 C 5.394531 -2.445312 4.691406 -2.234375 3.796875 -2.234375 L 1.890625 -2.234375 L 1.890625 0 L 1.15625 0 L 1.15625 -7.0625 Z M 3.78125 -2.890625 C 4.476562 -2.890625 5.007812 -3.039062 5.375 -3.34375 C 5.75 -3.65625 5.9375 -4.085938 5.9375 -4.640625 C 5.9375 -5.210938 5.75 -5.648438 5.375 -5.953125 C 5.007812 -6.265625 4.476562 -6.421875 3.78125 -6.421875 L 1.890625 -6.421875 L 1.890625 -2.890625 Z M 3.78125 -2.890625 "/></g></g></g><g fill="#272727" fill-opacity="1"><g transform="translate(230.852449, 294.016329)"><g><path d="M 1.15625 -7.0625 L 1.890625 -7.0625 L 1.890625 0 L 1.15625 0 Z M 1.15625 -7.0625 "/></g></g></g><g fill="#272727" fill-opacity="1"><g transform="translate(236.419713, 294.016329)"><g><path d="M 7.0625 -7.0625 L 7.0625 0 L 6.4375 0 L 1.890625 -5.734375 L 1.890625 0 L 1.15625 0 L 1.15625 -7.0625 L 1.765625 -7.0625 L 6.3125 -1.328125 L 6.3125 -7.0625 Z M 7.0625 -7.0625 "/></g></g></g><g fill="#272727" fill-opacity="1"><g transform="translate(247.13691, 294.016329)"><g><path d="M 6.125 -3.53125 L 6.84375 -3.53125 L 6.84375 -0.84375 C 6.507812 -0.550781 6.117188 -0.328125 5.671875 -0.171875 C 5.222656 -0.015625 4.75 0.0625 4.25 0.0625 C 3.539062 0.0625 2.90625 -0.09375 2.34375 -0.40625 C 1.78125 -0.71875 1.335938 -1.144531 1.015625 -1.6875 C 0.691406 -2.238281 0.53125 -2.851562 0.53125 -3.53125 C 0.53125 -4.207031 0.691406 -4.820312 1.015625 -5.375 C 1.335938 -5.925781 1.78125 -6.351562 2.34375 -6.65625 C 2.90625 -6.96875 3.546875 -7.125 4.265625 -7.125 C 4.796875 -7.125 5.285156 -7.035156 5.734375 -6.859375 C 6.191406 -6.691406 6.578125 -6.441406 6.890625 -6.109375 L 6.421875 -5.625 C 5.859375 -6.175781 5.148438 -6.453125 4.296875 -6.453125 C 3.722656 -6.453125 3.203125 -6.328125 2.734375 -6.078125 C 2.273438 -5.828125 1.914062 -5.476562 1.65625 -5.03125 C 1.394531 -4.582031 1.265625 -4.082031 1.265625 -3.53125 C 1.265625 -2.976562 1.394531 -2.476562 1.65625 -2.03125 C 1.914062 -1.59375 2.273438 -1.242188 2.734375 -0.984375 C 3.191406 -0.734375 3.707031 -0.609375 4.28125 -0.609375 C 5.007812 -0.609375 5.625 -0.789062 6.125 -1.15625 Z M 6.125 -3.53125 "/></g></g></g></svg>