<svg xmlns="http://www.w3.org/2000/svg" xmlns:xlink="http://www.w3.org/1999/xlink" width="500" zoomAndPan="magnify" viewBox="0 0 375 374.999991" height="500" preserveAspectRatio="xMidYMid meet" version="1.0"><defs><g/><clipPath id="9f9bccbf7a"><path d="M 132.109375 117 L 224.359375 117 L 224.359375 205.839844 L 132.109375 205.839844 Z M 132.109375 117 " clip-rule="nonzero"/></clipPath><clipPath id="b86077bca6"><path d="M 155 94.839844 L 202 94.839844 L 202 137 L 155 137 Z M 155 94.839844 " clip-rule="nonzero"/></clipPath><clipPath id="4c67685f91"><path d="M 178 144 L 240 144 L 240 219 L 178 219 Z M 178 144 " clip-rule="nonzero"/></clipPath><clipPath id="e342499233"><path d="M 178.339844 153.292969 L 227.921875 144.710938 L 239.234375 210.078125 L 189.652344 218.65625 Z M 178.339844 153.292969 " clip-rule="nonzero"/></clipPath><clipPath id="130332da54"><path d="M 172 156 L 235 156 L 235 210 L 172 210 Z M 172 156 " clip-rule="nonzero"/></clipPath><clipPath id="cdedd5d75a"><path d="M 168.023438 174.078125 L 222.90625 151.78125 L 239.261719 192.035156 L 184.382812 214.335938 Z M 168.023438 174.078125 " clip-rule="nonzero"/></clipPath><clipPath id="9eef04d60d"><path d="M 181.921875 168.433594 L 208.980469 157.4375 C 216.65625 154.320312 225.40625 158.011719 228.523438 165.6875 L 233.589844 178.152344 C 236.707031 185.824219 233.015625 194.574219 225.339844 197.695312 L 198.277344 208.691406 C 190.601562 211.808594 181.851562 208.113281 178.734375 200.441406 L 173.671875 187.976562 C 170.550781 180.300781 174.246094 171.550781 181.921875 168.433594 Z M 181.921875 168.433594 " clip-rule="nonzero"/></clipPath><clipPath id="e65fd55d0b"><path d="M 148 146 L 250 146 L 250 205 L 148 205 Z M 148 146 " clip-rule="nonzero"/></clipPath><clipPath id="34bfcacae4"><path d="M 148.273438 146.511719 L 245.164062 130.238281 L 260.820312 223.429688 L 163.929688 239.707031 Z M 148.273438 146.511719 " clip-rule="nonzero"/></clipPath><clipPath id="edc36feb7f"><path d="M 148.273438 146.511719 L 245.164062 130.238281 L 260.820312 223.429688 L 163.929688 239.707031 Z M 148.273438 146.511719 " clip-rule="nonzero"/></clipPath><clipPath id="ff2f28da01"><path d="M 186 207 L 212 207 L 212 233 L 186 233 Z M 186 207 " clip-rule="nonzero"/></clipPath><clipPath id="1d8ed40ed3"><path d="M 148.273438 146.511719 L 245.164062 130.238281 L 260.820312 223.429688 L 163.929688 239.707031 Z M 148.273438 146.511719 " clip-rule="nonzero"/></clipPath><clipPath id="76ea7e1a3a"><path d="M 148.273438 146.511719 L 245.164062 130.238281 L 260.820312 223.429688 L 163.929688 239.707031 Z M 148.273438 146.511719 " clip-rule="nonzero"/></clipPath><clipPath id="b08a80e961"><path d="M 221 201 L 247 201 L 247 227 L 221 227 Z M 221 201 " clip-rule="nonzero"/></clipPath><clipPath id="ac6d5b0d8b"><path d="M 148.273438 146.511719 L 245.164062 130.238281 L 260.820312 223.429688 L 163.929688 239.707031 Z M 148.273438 146.511719 " clip-rule="nonzero"/></clipPath><clipPath id="42da877428"><path d="M 148.273438 146.511719 L 245.164062 130.238281 L 260.820312 223.429688 L 163.929688 239.707031 Z M 148.273438 146.511719 " clip-rule="nonzero"/></clipPath><clipPath id="a4f6fb947b"><path d="M 231.140625 134.757812 L 262.207031 134.757812 L 262.207031 165.828125 L 231.140625 165.828125 Z M 231.140625 134.757812 " clip-rule="nonzero"/></clipPath><clipPath id="1672902fd4"><path d="M 246.671875 134.757812 C 238.09375 134.757812 231.140625 141.710938 231.140625 150.292969 C 231.140625 158.871094 238.09375 165.828125 246.671875 165.828125 C 255.253906 165.828125 262.207031 158.871094 262.207031 150.292969 C 262.207031 141.710938 255.253906 134.757812 246.671875 134.757812 Z M 246.671875 134.757812 " clip-rule="nonzero"/></clipPath><clipPath id="b16b37c5f8"><path d="M 235.3125 138.933594 L 258.03125 138.933594 L 258.03125 161.652344 L 235.3125 161.652344 Z M 235.3125 138.933594 " clip-rule="nonzero"/></clipPath><clipPath id="2cb79162f6"><path d="M 246.671875 138.933594 C 240.398438 138.933594 235.3125 144.019531 235.3125 150.292969 C 235.3125 156.566406 240.398438 161.652344 246.671875 161.652344 C 252.945312 161.652344 258.03125 156.566406 258.03125 150.292969 C 258.03125 144.019531 252.945312 138.933594 246.671875 138.933594 Z M 246.671875 138.933594 " clip-rule="nonzero"/></clipPath><clipPath id="a30a2ff1e3"><path d="M 239.539062 144.84375 L 253.789062 144.84375 L 253.789062 156 L 239.539062 156 Z M 239.539062 144.84375 " clip-rule="nonzero"/></clipPath></defs><g clip-path="url(#9f9bccbf7a)"><path fill="#053262" d="M 217.746094 205.734375 L 139.394531 205.734375 C 137.492188 205.734375 135.644531 204.941406 134.34375 203.558594 C 133.035156 202.175781 132.34375 200.292969 132.449219 198.390625 L 136.574219 124.152344 C 136.777344 120.460938 139.828125 117.578125 143.519531 117.578125 L 213.621094 117.578125 C 217.3125 117.578125 220.363281 120.460938 220.566406 124.152344 L 224.691406 198.390625 C 224.796875 200.292969 224.105469 202.175781 222.796875 203.558594 C 221.488281 204.941406 219.648438 205.734375 217.746094 205.734375 Z M 143.519531 122.214844 C 142.289062 122.214844 141.269531 123.179688 141.203125 124.40625 L 137.078125 198.644531 C 137.046875 199.289062 137.269531 199.902344 137.710938 200.371094 C 138.15625 200.835938 138.75 201.09375 139.394531 201.09375 L 217.746094 201.09375 C 218.390625 201.09375 218.988281 200.835938 219.429688 200.371094 C 219.871094 199.902344 220.097656 199.289062 220.0625 198.644531 L 215.9375 124.40625 C 215.871094 123.179688 214.851562 122.214844 213.621094 122.214844 Z M 143.519531 122.214844 " fill-opacity="1" fill-rule="nonzero"/></g><g clip-path="url(#b86077bca6)"><path fill="#053262" d="M 199.449219 136.246094 C 198.167969 136.246094 197.128906 135.207031 197.128906 133.925781 L 197.128906 118.003906 C 197.128906 107.765625 188.804688 99.445312 178.570312 99.445312 C 168.335938 99.445312 160.011719 107.765625 160.011719 118.003906 L 160.011719 133.925781 C 160.011719 135.207031 158.972656 136.246094 157.691406 136.246094 C 156.410156 136.246094 155.371094 135.207031 155.371094 133.925781 L 155.371094 118.003906 C 155.371094 105.210938 165.777344 94.804688 178.570312 94.804688 C 191.363281 94.804688 201.769531 105.210938 201.769531 118.003906 L 201.769531 133.925781 C 201.769531 135.207031 200.730469 136.246094 199.449219 136.246094 Z M 199.449219 136.246094 " fill-opacity="1" fill-rule="nonzero"/></g><g clip-path="url(#4c67685f91)"><g clip-path="url(#e342499233)"><path fill="#ffffff" d="M 178.339844 153.292969 L 227.921875 144.710938 L 239.21875 209.980469 L 189.636719 218.5625 Z M 178.339844 153.292969 " fill-opacity="1" fill-rule="nonzero"/></g></g><g clip-path="url(#130332da54)"><g clip-path="url(#cdedd5d75a)"><g clip-path="url(#9eef04d60d)"><path fill="#ffffff" d="M 168.023438 174.078125 L 222.90625 151.78125 L 239.261719 192.035156 L 184.382812 214.335938 Z M 168.023438 174.078125 " fill-opacity="1" fill-rule="nonzero"/></g></g></g><g clip-path="url(#e65fd55d0b)"><g clip-path="url(#34bfcacae4)"><g clip-path="url(#edc36feb7f)"><path fill="#00bf63" d="M 238.460938 149.546875 L 181.527344 159.113281 C 181.125 159.179688 180.753906 159.320312 180.410156 159.535156 C 180.066406 159.75 179.777344 160.023438 179.542969 160.355469 C 179.304688 160.683594 179.144531 161.046875 179.050781 161.441406 C 178.960938 161.839844 178.949219 162.234375 179.015625 162.636719 C 179.082031 163.035156 179.222656 163.40625 179.441406 163.75 C 179.65625 164.09375 179.925781 164.386719 180.257812 164.621094 C 180.589844 164.855469 180.949219 165.019531 181.347656 165.109375 C 181.742188 165.199219 182.140625 165.210938 182.539062 165.144531 L 239.476562 155.582031 C 239.753906 155.535156 240.035156 155.523438 240.316406 155.546875 C 240.597656 155.570312 240.875 155.632812 241.140625 155.726562 C 241.40625 155.820312 241.660156 155.949219 241.894531 156.109375 C 242.128906 156.265625 242.339844 156.453125 242.523438 156.667969 C 242.710938 156.878906 242.867188 157.113281 242.996094 157.367188 C 243.121094 157.617188 243.214844 157.882812 243.277344 158.160156 C 243.335938 158.4375 243.359375 158.71875 243.34375 159 C 243.332031 159.285156 243.285156 159.5625 243.203125 159.832031 C 240.917969 167.328125 238.585938 183.589844 236.953125 188.914062 C 236.769531 189.515625 236.441406 190.023438 235.96875 190.441406 C 235.496094 190.855469 234.949219 191.113281 234.328125 191.21875 L 192.414062 198.257812 C 192.082031 198.316406 191.753906 198.320312 191.421875 198.277344 C 191.09375 198.234375 190.777344 198.144531 190.472656 198.003906 C 190.171875 197.867188 189.894531 197.683594 189.644531 197.464844 C 189.398438 197.242188 189.1875 196.988281 189.015625 196.703125 C 189.007812 196.667969 172.472656 155.953125 172.472656 155.953125 C 172.140625 155.125 171.738281 154.332031 171.265625 153.570312 C 170.796875 152.8125 170.265625 152.09375 169.675781 151.425781 C 169.085938 150.753906 168.441406 150.140625 167.746094 149.578125 C 167.050781 149.015625 166.3125 148.515625 165.535156 148.082031 C 164.753906 147.644531 163.941406 147.277344 163.101562 146.976562 C 162.257812 146.679688 161.398438 146.453125 160.515625 146.300781 C 159.636719 146.148438 158.75 146.070312 157.855469 146.066406 C 156.960938 146.0625 156.074219 146.136719 155.191406 146.285156 L 151.445312 146.914062 C 151.035156 146.964844 150.65625 147.09375 150.300781 147.304688 C 149.945312 147.515625 149.648438 147.789062 149.410156 148.125 C 149.171875 148.460938 149.007812 148.832031 148.925781 149.234375 C 148.84375 149.636719 148.847656 150.042969 148.933594 150.445312 C 149.003906 150.84375 149.144531 151.214844 149.359375 151.558594 C 149.574219 151.902344 149.847656 152.191406 150.175781 152.425781 C 150.507812 152.660156 150.871094 152.824219 151.265625 152.917969 C 151.660156 153.007812 152.058594 153.019531 152.457031 152.953125 L 156.207031 152.324219 C 156.746094 152.234375 157.292969 152.1875 157.839844 152.191406 C 158.386719 152.191406 158.929688 152.238281 159.46875 152.332031 C 160.007812 152.425781 160.535156 152.5625 161.050781 152.746094 C 161.570312 152.929688 162.066406 153.152344 162.542969 153.417969 C 163.023438 153.6875 163.472656 153.992188 163.902344 154.335938 C 164.328125 154.675781 164.722656 155.054688 165.085938 155.464844 C 165.445312 155.875 165.773438 156.3125 166.0625 156.777344 C 166.347656 157.242188 166.597656 157.730469 166.804688 158.234375 L 183.394531 199.128906 C 183.4375 199.222656 183.480469 199.320312 183.527344 199.410156 C 183.992188 200.285156 184.582031 201.066406 185.289062 201.757812 C 186 202.445312 186.800781 203.011719 187.6875 203.449219 C 188.578125 203.886719 189.511719 204.179688 190.492188 204.320312 C 191.472656 204.464844 192.449219 204.457031 193.425781 204.292969 L 235.339844 197.25 C 236.207031 197.105469 237.035156 196.84375 237.824219 196.46875 C 238.617188 196.09375 239.34375 195.617188 240 195.039062 C 240.660156 194.460938 241.226562 193.800781 241.703125 193.066406 C 242.179688 192.332031 242.546875 191.542969 242.800781 190.707031 C 244.429688 185.378906 246.753906 169.128906 249.050781 161.621094 C 249.167969 161.238281 249.261719 160.847656 249.328125 160.453125 C 249.394531 160.058594 249.4375 159.664062 249.457031 159.261719 C 249.472656 158.863281 249.464844 158.460938 249.429688 158.0625 C 249.398438 157.664062 249.339844 157.269531 249.253906 156.875 C 249.171875 156.484375 249.0625 156.101562 248.929688 155.722656 C 248.796875 155.34375 248.640625 154.976562 248.460938 154.617188 C 248.28125 154.261719 248.078125 153.914062 247.855469 153.582031 C 247.628906 153.25 247.386719 152.933594 247.121094 152.632812 C 246.859375 152.332031 246.574219 152.046875 246.273438 151.78125 C 245.976562 151.515625 245.660156 151.273438 245.328125 151.046875 C 244.996094 150.820312 244.652344 150.617188 244.292969 150.4375 C 243.9375 150.257812 243.570312 150.097656 243.191406 149.964844 C 242.816406 149.828125 242.429688 149.71875 242.039062 149.632812 C 241.648438 149.550781 241.253906 149.488281 240.855469 149.453125 C 240.453125 149.417969 240.054688 149.410156 239.65625 149.425781 C 239.253906 149.441406 238.855469 149.480469 238.460938 149.546875 Z M 238.460938 149.546875 " fill-opacity="1" fill-rule="evenodd"/></g></g></g><g clip-path="url(#ff2f28da01)"><g clip-path="url(#1d8ed40ed3)"><g clip-path="url(#76ea7e1a3a)"><path fill="#00bf63" d="M 197.296875 207.277344 C 196.488281 207.414062 195.699219 207.628906 194.933594 207.917969 C 194.167969 208.210938 193.433594 208.574219 192.738281 209.007812 C 192.042969 209.445312 191.398438 209.941406 190.800781 210.503906 C 190.203125 211.066406 189.664062 211.683594 189.191406 212.351562 C 188.714844 213.019531 188.308594 213.730469 187.972656 214.476562 C 187.632812 215.226562 187.375 216 187.191406 216.800781 C 187.007812 217.597656 186.902344 218.410156 186.878906 219.230469 C 186.851562 220.050781 186.910156 220.863281 187.042969 221.671875 C 187.179688 222.484375 187.394531 223.269531 187.683594 224.039062 C 187.976562 224.804688 188.339844 225.535156 188.777344 226.234375 C 189.210938 226.929688 189.710938 227.574219 190.273438 228.171875 C 190.835938 228.769531 191.449219 229.304688 192.121094 229.78125 C 192.789062 230.257812 193.496094 230.664062 194.246094 231 C 194.992188 231.335938 195.765625 231.597656 196.566406 231.78125 C 197.367188 231.964844 198.175781 232.070312 198.996094 232.09375 C 199.816406 232.117188 200.632812 232.0625 201.441406 231.925781 C 202.25 231.789062 203.039062 231.578125 203.804688 231.285156 C 204.574219 230.992188 205.304688 230.628906 206 230.195312 C 206.695312 229.757812 207.339844 229.261719 207.9375 228.699219 C 208.535156 228.132812 209.074219 227.519531 209.546875 226.851562 C 210.023438 226.183594 210.429688 225.472656 210.765625 224.726562 C 211.101562 223.976562 211.363281 223.203125 211.546875 222.402344 C 211.730469 221.601562 211.835938 220.792969 211.859375 219.972656 C 211.882812 219.152344 211.828125 218.335938 211.691406 217.527344 C 211.554688 216.71875 211.339844 215.933594 211.050781 215.164062 C 210.757812 214.398438 210.394531 213.667969 209.960938 212.972656 C 209.523438 212.277344 209.023438 211.632812 208.460938 211.035156 C 207.898438 210.4375 207.285156 209.902344 206.617188 209.425781 C 205.949219 208.949219 205.238281 208.542969 204.492188 208.207031 C 203.742188 207.871094 202.96875 207.609375 202.171875 207.425781 C 201.371094 207.242188 200.5625 207.136719 199.742188 207.113281 C 198.921875 207.085938 198.105469 207.144531 197.296875 207.277344 Z M 200.425781 225.894531 C 200.011719 225.964844 199.597656 225.992188 199.179688 225.980469 C 198.757812 225.964844 198.347656 225.914062 197.9375 225.820312 C 197.53125 225.726562 197.132812 225.59375 196.753906 225.421875 C 196.371094 225.25 196.007812 225.042969 195.667969 224.796875 C 195.328125 224.554688 195.011719 224.28125 194.726562 223.976562 C 194.4375 223.671875 194.183594 223.34375 193.960938 222.988281 C 193.738281 222.632812 193.554688 222.257812 193.40625 221.867188 C 193.253906 221.476562 193.148438 221.074219 193.078125 220.660156 C 193.007812 220.246094 192.980469 219.832031 192.992188 219.414062 C 193.003906 218.992188 193.058594 218.582031 193.152344 218.171875 C 193.246094 217.765625 193.378906 217.371094 193.550781 216.988281 C 193.722656 216.605469 193.929688 216.242188 194.171875 215.902344 C 194.414062 215.5625 194.6875 215.246094 194.992188 214.960938 C 195.296875 214.671875 195.628906 214.417969 195.984375 214.195312 C 196.335938 213.972656 196.710938 213.789062 197.101562 213.640625 C 197.492188 213.488281 197.894531 213.382812 198.308594 213.3125 C 198.722656 213.242188 199.136719 213.214844 199.558594 213.226562 C 199.976562 213.238281 200.390625 213.289062 200.796875 213.386719 C 201.207031 213.480469 201.601562 213.609375 201.984375 213.78125 C 202.363281 213.953125 202.726562 214.160156 203.066406 214.40625 C 203.410156 214.648438 203.722656 214.921875 204.011719 215.226562 C 204.296875 215.53125 204.550781 215.859375 204.773438 216.214844 C 204.996094 216.570312 205.183594 216.945312 205.332031 217.335938 C 205.480469 217.726562 205.589844 218.128906 205.660156 218.542969 C 205.726562 218.957031 205.757812 219.371094 205.742188 219.789062 C 205.730469 220.207031 205.679688 220.621094 205.582031 221.03125 C 205.488281 221.4375 205.355469 221.832031 205.183594 222.214844 C 205.011719 222.597656 204.804688 222.960938 204.5625 223.300781 C 204.320312 223.640625 204.046875 223.957031 203.742188 224.242188 C 203.4375 224.53125 203.105469 224.785156 202.75 225.007812 C 202.398438 225.230469 202.023438 225.417969 201.632812 225.566406 C 201.242188 225.714844 200.839844 225.824219 200.425781 225.894531 Z M 200.425781 225.894531 " fill-opacity="1" fill-rule="evenodd"/></g></g></g><g clip-path="url(#b08a80e961)"><g clip-path="url(#ac6d5b0d8b)"><g clip-path="url(#42da877428)"><path fill="#00bf63" d="M 231.648438 201.507812 C 230.835938 201.644531 230.050781 201.859375 229.28125 202.148438 C 228.515625 202.441406 227.785156 202.804688 227.089844 203.238281 C 226.390625 203.671875 225.746094 204.171875 225.148438 204.734375 C 224.550781 205.296875 224.015625 205.914062 223.539062 206.582031 C 223.0625 207.25 222.65625 207.957031 222.320312 208.707031 C 221.984375 209.457031 221.722656 210.230469 221.539062 211.03125 C 221.355469 211.828125 221.25 212.640625 221.226562 213.460938 C 221.203125 214.28125 221.257812 215.09375 221.394531 215.902344 C 221.53125 216.710938 221.742188 217.5 222.035156 218.269531 C 222.324219 219.035156 222.6875 219.765625 223.125 220.460938 C 223.558594 221.15625 224.058594 221.804688 224.621094 222.402344 C 225.183594 223 225.800781 223.535156 226.46875 224.011719 C 227.136719 224.488281 227.84375 224.894531 228.59375 225.230469 C 229.34375 225.566406 230.117188 225.828125 230.914062 226.011719 C 231.714844 226.195312 232.527344 226.300781 233.347656 226.324219 C 234.164062 226.347656 234.980469 226.292969 235.789062 226.15625 C 236.597656 226.019531 237.386719 225.804688 238.15625 225.515625 C 238.921875 225.222656 239.652344 224.859375 240.347656 224.425781 C 241.042969 223.988281 241.691406 223.488281 242.289062 222.925781 C 242.886719 222.363281 243.421875 221.75 243.898438 221.082031 C 244.375 220.410156 244.78125 219.703125 245.117188 218.953125 C 245.453125 218.207031 245.710938 217.433594 245.894531 216.632812 C 246.082031 215.832031 246.183594 215.023438 246.207031 214.203125 C 246.234375 213.382812 246.175781 212.566406 246.039062 211.757812 C 245.90625 210.949219 245.691406 210.160156 245.398438 209.394531 C 245.109375 208.628906 244.746094 207.898438 244.308594 207.203125 C 243.875 206.507812 243.375 205.859375 242.8125 205.261719 C 242.25 204.667969 241.632812 204.128906 240.964844 203.652344 C 240.296875 203.179688 239.589844 202.773438 238.839844 202.433594 C 238.09375 202.097656 237.320312 201.839844 236.519531 201.65625 C 235.71875 201.46875 234.910156 201.367188 234.089844 201.339844 C 233.269531 201.316406 232.457031 201.371094 231.648438 201.507812 Z M 234.773438 220.125 C 234.359375 220.191406 233.945312 220.222656 233.527344 220.207031 C 233.109375 220.195312 232.695312 220.144531 232.285156 220.050781 C 231.878906 219.953125 231.484375 219.820312 231.101562 219.652344 C 230.71875 219.480469 230.359375 219.269531 230.015625 219.027344 C 229.675781 218.785156 229.359375 218.511719 229.074219 218.207031 C 228.785156 217.902344 228.53125 217.570312 228.308594 217.21875 C 228.085938 216.863281 227.902344 216.488281 227.753906 216.097656 C 227.605469 215.707031 227.496094 215.304688 227.425781 214.890625 C 227.355469 214.476562 227.328125 214.0625 227.339844 213.640625 C 227.351562 213.222656 227.40625 212.808594 227.5 212.402344 C 227.59375 211.992188 227.726562 211.597656 227.898438 211.21875 C 228.070312 210.835938 228.277344 210.472656 228.519531 210.132812 C 228.761719 209.789062 229.039062 209.476562 229.34375 209.191406 C 229.648438 208.902344 229.976562 208.648438 230.332031 208.425781 C 230.6875 208.203125 231.058594 208.015625 231.453125 207.867188 C 231.84375 207.71875 232.246094 207.609375 232.65625 207.542969 C 233.070312 207.472656 233.488281 207.441406 233.90625 207.457031 C 234.324219 207.46875 234.738281 207.519531 235.144531 207.613281 C 235.554688 207.707031 235.949219 207.839844 236.332031 208.011719 C 236.714844 208.183594 237.074219 208.390625 237.417969 208.632812 C 237.757812 208.878906 238.070312 209.152344 238.359375 209.457031 C 238.644531 209.761719 238.902344 210.089844 239.125 210.445312 C 239.347656 210.800781 239.53125 211.171875 239.679688 211.566406 C 239.828125 211.957031 239.9375 212.359375 240.007812 212.773438 C 240.078125 213.183594 240.105469 213.601562 240.09375 214.019531 C 240.082031 214.4375 240.027344 214.851562 239.933594 215.261719 C 239.839844 215.667969 239.707031 216.0625 239.535156 216.445312 C 239.363281 216.828125 239.15625 217.1875 238.910156 217.53125 C 238.667969 217.871094 238.394531 218.1875 238.089844 218.472656 C 237.785156 218.761719 237.457031 219.015625 237.101562 219.238281 C 236.746094 219.460938 236.371094 219.644531 235.980469 219.796875 C 235.589844 219.945312 235.1875 220.054688 234.773438 220.125 Z M 234.773438 220.125 " fill-opacity="1" fill-rule="evenodd"/></g></g></g><g clip-path="url(#a4f6fb947b)"><g clip-path="url(#1672902fd4)"><path fill="#ffffff" d="M 231.140625 134.757812 L 262.207031 134.757812 L 262.207031 165.828125 L 231.140625 165.828125 Z M 231.140625 134.757812 " fill-opacity="1" fill-rule="nonzero"/></g></g><g clip-path="url(#b16b37c5f8)"><g clip-path="url(#2cb79162f6)"><path fill="#00bf63" d="M 235.3125 138.933594 L 258.03125 138.933594 L 258.03125 161.652344 L 235.3125 161.652344 Z M 235.3125 138.933594 " fill-opacity="1" fill-rule="nonzero"/></g></g><g clip-path="url(#a30a2ff1e3)"><path fill="#ffffff" d="M 252.875 144.847656 C 252.648438 144.855469 252.460938 144.9375 252.304688 145.097656 L 243.769531 153.632812 L 241.039062 150.902344 C 240.878906 150.734375 240.679688 150.652344 240.449219 150.648438 C 240.214844 150.644531 240.019531 150.726562 239.855469 150.890625 C 239.691406 151.054688 239.609375 151.253906 239.609375 151.488281 C 239.613281 151.71875 239.699219 151.914062 239.867188 152.078125 L 243.183594 155.394531 C 243.34375 155.554688 243.539062 155.636719 243.769531 155.636719 C 243.996094 155.636719 244.191406 155.554688 244.355469 155.394531 L 253.476562 146.273438 C 253.597656 146.152344 253.675781 146.007812 253.710938 145.84375 C 253.746094 145.675781 253.726562 145.511719 253.660156 145.355469 C 253.59375 145.195312 253.488281 145.070312 253.347656 144.980469 C 253.203125 144.886719 253.042969 144.84375 252.875 144.847656 Z M 252.875 144.847656 " fill-opacity="1" fill-rule="nonzero"/></g><g fill="#053262" fill-opacity="1"><g transform="translate(110.409336, 276.95936)"><g><path d="M 0.640625 -0.15625 L 0.640625 -5.78125 C 0.640625 -5.882812 0.691406 -5.9375 0.796875 -5.9375 L 4.71875 -5.9375 C 4.820312 -5.9375 4.875 -5.882812 4.875 -5.78125 L 4.875 -5 C 4.875 -4.894531 4.820312 -4.84375 4.71875 -4.84375 L 1.8125 -4.84375 L 1.8125 -3.625 L 4.03125 -3.625 C 4.144531 -3.625 4.203125 -3.570312 4.203125 -3.46875 L 4.203125 -2.71875 C 4.203125 -2.601562 4.144531 -2.546875 4.03125 -2.546875 L 1.8125 -2.546875 L 1.8125 -1.09375 L 4.78125 -1.09375 C 4.894531 -1.09375 4.953125 -1.035156 4.953125 -0.921875 L 4.953125 -0.15625 C 4.953125 -0.0507812 4.894531 0 4.78125 0 L 0.796875 0 C 0.691406 0 0.640625 -0.0507812 0.640625 -0.15625 Z M 0.640625 -0.15625 "/></g></g></g><g fill="#053262" fill-opacity="1"><g transform="translate(117.945381, 276.95936)"><g><path d="M 0.84375 -2.78125 L 3.453125 -2.78125 C 3.515625 -2.78125 3.566406 -2.757812 3.609375 -2.71875 C 3.648438 -2.675781 3.671875 -2.625 3.671875 -2.5625 L 3.671875 -2 C 3.671875 -1.945312 3.648438 -1.894531 3.609375 -1.84375 C 3.566406 -1.800781 3.515625 -1.78125 3.453125 -1.78125 L 0.84375 -1.78125 C 0.707031 -1.78125 0.640625 -1.851562 0.640625 -2 L 0.640625 -2.5625 C 0.640625 -2.707031 0.707031 -2.78125 0.84375 -2.78125 Z M 0.84375 -2.78125 "/></g></g></g><g fill="#053262" fill-opacity="1"><g transform="translate(124.481415, 276.95936)"><g><path d="M 4.546875 -1.390625 C 4.597656 -1.429688 4.644531 -1.453125 4.6875 -1.453125 C 4.726562 -1.453125 4.765625 -1.429688 4.796875 -1.390625 L 5.203125 -0.703125 C 5.265625 -0.617188 5.25 -0.539062 5.15625 -0.46875 C 4.925781 -0.300781 4.671875 -0.164062 4.390625 -0.0625 C 4.109375 0.0390625 3.785156 0.09375 3.421875 0.09375 C 3.003906 0.09375 2.609375 0.015625 2.234375 -0.140625 C 1.859375 -0.304688 1.53125 -0.53125 1.25 -0.8125 C 0.96875 -1.09375 0.75 -1.414062 0.59375 -1.78125 C 0.4375 -2.15625 0.359375 -2.550781 0.359375 -2.96875 C 0.359375 -3.394531 0.4375 -3.789062 0.59375 -4.15625 C 0.75 -4.53125 0.96875 -4.851562 1.25 -5.125 C 1.53125 -5.40625 1.859375 -5.625 2.234375 -5.78125 C 2.609375 -5.945312 3.003906 -6.03125 3.421875 -6.03125 C 3.785156 -6.03125 4.109375 -5.976562 4.390625 -5.875 C 4.679688 -5.78125 4.941406 -5.644531 5.171875 -5.46875 C 5.210938 -5.4375 5.234375 -5.398438 5.234375 -5.359375 C 5.234375 -5.316406 5.226562 -5.285156 5.21875 -5.265625 L 4.796875 -4.546875 C 4.773438 -4.515625 4.742188 -4.5 4.703125 -4.5 C 4.660156 -4.5 4.613281 -4.515625 4.5625 -4.546875 C 4.375 -4.660156 4.191406 -4.75 4.015625 -4.8125 C 3.835938 -4.875 3.640625 -4.90625 3.421875 -4.90625 C 3.066406 -4.90625 2.742188 -4.820312 2.453125 -4.65625 C 2.171875 -4.488281 1.945312 -4.253906 1.78125 -3.953125 C 1.613281 -3.660156 1.53125 -3.332031 1.53125 -2.96875 C 1.53125 -2.613281 1.613281 -2.285156 1.78125 -1.984375 C 1.945312 -1.691406 2.171875 -1.457031 2.453125 -1.28125 C 2.742188 -1.101562 3.066406 -1.015625 3.421875 -1.015625 C 3.640625 -1.015625 3.847656 -1.046875 4.046875 -1.109375 C 4.242188 -1.179688 4.410156 -1.273438 4.546875 -1.390625 Z M 4.546875 -1.390625 "/></g></g></g><g fill="#053262" fill-opacity="1"><g transform="translate(132.52146, 276.95936)"><g><path d="M 6.453125 -2.96875 C 6.453125 -2.550781 6.367188 -2.15625 6.203125 -1.78125 C 6.046875 -1.414062 5.828125 -1.09375 5.546875 -0.8125 C 5.273438 -0.53125 4.953125 -0.3125 4.578125 -0.15625 C 4.210938 0 3.816406 0.078125 3.390625 0.078125 C 2.972656 0.078125 2.578125 0 2.203125 -0.15625 C 1.835938 -0.3125 1.515625 -0.53125 1.234375 -0.8125 C 0.960938 -1.09375 0.75 -1.414062 0.59375 -1.78125 C 0.4375 -2.15625 0.359375 -2.550781 0.359375 -2.96875 C 0.359375 -3.394531 0.4375 -3.789062 0.59375 -4.15625 C 0.75 -4.53125 0.960938 -4.851562 1.234375 -5.125 C 1.515625 -5.40625 1.835938 -5.625 2.203125 -5.78125 C 2.578125 -5.945312 2.972656 -6.03125 3.390625 -6.03125 C 3.816406 -6.03125 4.210938 -5.945312 4.578125 -5.78125 C 4.953125 -5.625 5.273438 -5.40625 5.546875 -5.125 C 5.828125 -4.851562 6.046875 -4.53125 6.203125 -4.15625 C 6.367188 -3.789062 6.453125 -3.394531 6.453125 -2.96875 Z M 5.28125 -2.96875 C 5.28125 -3.332031 5.195312 -3.660156 5.03125 -3.953125 C 4.863281 -4.242188 4.640625 -4.472656 4.359375 -4.640625 C 4.078125 -4.816406 3.753906 -4.90625 3.390625 -4.90625 C 3.035156 -4.90625 2.71875 -4.816406 2.4375 -4.640625 C 2.15625 -4.472656 1.929688 -4.242188 1.765625 -3.953125 C 1.597656 -3.660156 1.515625 -3.332031 1.515625 -2.96875 C 1.515625 -2.613281 1.597656 -2.289062 1.765625 -2 C 1.929688 -1.707031 2.15625 -1.472656 2.4375 -1.296875 C 2.71875 -1.128906 3.035156 -1.046875 3.390625 -1.046875 C 3.753906 -1.046875 4.078125 -1.128906 4.359375 -1.296875 C 4.640625 -1.472656 4.863281 -1.707031 5.03125 -2 C 5.195312 -2.289062 5.28125 -2.613281 5.28125 -2.96875 Z M 5.28125 -2.96875 "/></g></g></g><g fill="#053262" fill-opacity="1"><g transform="translate(141.745514, 276.95936)"><g><path d="M 3.3125 -0.265625 L 1.96875 -3.9375 L 1.546875 -0.15625 C 1.535156 -0.0507812 1.484375 0 1.390625 0 L 0.578125 0 C 0.460938 0 0.410156 -0.0507812 0.421875 -0.15625 L 1.03125 -5.78125 C 1.039062 -5.882812 1.097656 -5.9375 1.203125 -5.9375 L 2.234375 -5.9375 C 2.273438 -5.9375 2.304688 -5.925781 2.328125 -5.90625 C 2.347656 -5.882812 2.367188 -5.847656 2.390625 -5.796875 L 3.8125 -1.84375 L 5.21875 -5.796875 C 5.257812 -5.890625 5.3125 -5.9375 5.375 -5.9375 L 6.4375 -5.9375 C 6.539062 -5.9375 6.597656 -5.882812 6.609375 -5.78125 L 7.203125 -0.15625 C 7.222656 -0.0507812 7.175781 0 7.0625 0 L 6.234375 0 C 6.148438 0 6.097656 -0.0507812 6.078125 -0.15625 L 5.671875 -3.9375 L 4.3125 -0.265625 C 4.289062 -0.203125 4.265625 -0.160156 4.234375 -0.140625 C 4.210938 -0.128906 4.179688 -0.125 4.140625 -0.125 L 3.46875 -0.125 C 3.4375 -0.125 3.40625 -0.128906 3.375 -0.140625 C 3.351562 -0.160156 3.332031 -0.203125 3.3125 -0.265625 Z M 3.3125 -0.265625 "/></g></g></g><g fill="#053262" fill-opacity="1"><g transform="translate(151.553574, 276.95936)"><g><path d="M 3.3125 -0.265625 L 1.96875 -3.9375 L 1.546875 -0.15625 C 1.535156 -0.0507812 1.484375 0 1.390625 0 L 0.578125 0 C 0.460938 0 0.410156 -0.0507812 0.421875 -0.15625 L 1.03125 -5.78125 C 1.039062 -5.882812 1.097656 -5.9375 1.203125 -5.9375 L 2.234375 -5.9375 C 2.273438 -5.9375 2.304688 -5.925781 2.328125 -5.90625 C 2.347656 -5.882812 2.367188 -5.847656 2.390625 -5.796875 L 3.8125 -1.84375 L 5.21875 -5.796875 C 5.257812 -5.890625 5.3125 -5.9375 5.375 -5.9375 L 6.4375 -5.9375 C 6.539062 -5.9375 6.597656 -5.882812 6.609375 -5.78125 L 7.203125 -0.15625 C 7.222656 -0.0507812 7.175781 0 7.0625 0 L 6.234375 0 C 6.148438 0 6.097656 -0.0507812 6.078125 -0.15625 L 5.671875 -3.9375 L 4.3125 -0.265625 C 4.289062 -0.203125 4.265625 -0.160156 4.234375 -0.140625 C 4.210938 -0.128906 4.179688 -0.125 4.140625 -0.125 L 3.46875 -0.125 C 3.4375 -0.125 3.40625 -0.128906 3.375 -0.140625 C 3.351562 -0.160156 3.332031 -0.203125 3.3125 -0.265625 Z M 3.3125 -0.265625 "/></g></g></g><g fill="#053262" fill-opacity="1"><g transform="translate(161.361633, 276.95936)"><g><path d="M 0.640625 -0.15625 L 0.640625 -5.78125 C 0.640625 -5.882812 0.691406 -5.9375 0.796875 -5.9375 L 4.71875 -5.9375 C 4.820312 -5.9375 4.875 -5.882812 4.875 -5.78125 L 4.875 -5 C 4.875 -4.894531 4.820312 -4.84375 4.71875 -4.84375 L 1.8125 -4.84375 L 1.8125 -3.625 L 4.03125 -3.625 C 4.144531 -3.625 4.203125 -3.570312 4.203125 -3.46875 L 4.203125 -2.71875 C 4.203125 -2.601562 4.144531 -2.546875 4.03125 -2.546875 L 1.8125 -2.546875 L 1.8125 -1.09375 L 4.78125 -1.09375 C 4.894531 -1.09375 4.953125 -1.035156 4.953125 -0.921875 L 4.953125 -0.15625 C 4.953125 -0.0507812 4.894531 0 4.78125 0 L 0.796875 0 C 0.691406 0 0.640625 -0.0507812 0.640625 -0.15625 Z M 0.640625 -0.15625 "/></g></g></g><g fill="#053262" fill-opacity="1"><g transform="translate(168.897677, 276.95936)"><g><path d="M 0.640625 -0.15625 L 0.640625 -5.78125 C 0.640625 -5.820312 0.648438 -5.859375 0.671875 -5.890625 C 0.703125 -5.921875 0.742188 -5.9375 0.796875 -5.9375 L 3.34375 -5.9375 C 3.707031 -5.9375 4.03125 -5.84375 4.3125 -5.65625 C 4.601562 -5.476562 4.828125 -5.238281 4.984375 -4.9375 C 5.140625 -4.632812 5.21875 -4.316406 5.21875 -3.984375 C 5.21875 -3.648438 5.125 -3.332031 4.9375 -3.03125 C 4.75 -2.738281 4.507812 -2.503906 4.21875 -2.328125 L 5.296875 -0.171875 C 5.316406 -0.128906 5.316406 -0.0859375 5.296875 -0.046875 C 5.285156 -0.015625 5.253906 0 5.203125 0 L 4.171875 0 C 4.085938 0 4.023438 -0.046875 3.984375 -0.140625 L 3.03125 -2.0625 L 1.8125 -2.0625 L 1.8125 -0.15625 C 1.8125 -0.0507812 1.757812 0 1.65625 0 L 0.796875 0 C 0.691406 0 0.640625 -0.0507812 0.640625 -0.15625 Z M 3.0625 -4.90625 L 1.8125 -4.90625 L 1.8125 -3.109375 L 3.0625 -3.109375 C 3.34375 -3.109375 3.570312 -3.191406 3.75 -3.359375 C 3.9375 -3.523438 4.03125 -3.742188 4.03125 -4.015625 C 4.03125 -4.265625 3.9375 -4.472656 3.75 -4.640625 C 3.570312 -4.816406 3.34375 -4.90625 3.0625 -4.90625 Z M 3.0625 -4.90625 "/></g></g></g><g fill="#053262" fill-opacity="1"><g transform="translate(176.665726, 276.95936)"><g><path d="M 4.546875 -1.390625 C 4.597656 -1.429688 4.644531 -1.453125 4.6875 -1.453125 C 4.726562 -1.453125 4.765625 -1.429688 4.796875 -1.390625 L 5.203125 -0.703125 C 5.265625 -0.617188 5.25 -0.539062 5.15625 -0.46875 C 4.925781 -0.300781 4.671875 -0.164062 4.390625 -0.0625 C 4.109375 0.0390625 3.785156 0.09375 3.421875 0.09375 C 3.003906 0.09375 2.609375 0.015625 2.234375 -0.140625 C 1.859375 -0.304688 1.53125 -0.53125 1.25 -0.8125 C 0.96875 -1.09375 0.75 -1.414062 0.59375 -1.78125 C 0.4375 -2.15625 0.359375 -2.550781 0.359375 -2.96875 C 0.359375 -3.394531 0.4375 -3.789062 0.59375 -4.15625 C 0.75 -4.53125 0.96875 -4.851562 1.25 -5.125 C 1.53125 -5.40625 1.859375 -5.625 2.234375 -5.78125 C 2.609375 -5.945312 3.003906 -6.03125 3.421875 -6.03125 C 3.785156 -6.03125 4.109375 -5.976562 4.390625 -5.875 C 4.679688 -5.78125 4.941406 -5.644531 5.171875 -5.46875 C 5.210938 -5.4375 5.234375 -5.398438 5.234375 -5.359375 C 5.234375 -5.316406 5.226562 -5.285156 5.21875 -5.265625 L 4.796875 -4.546875 C 4.773438 -4.515625 4.742188 -4.5 4.703125 -4.5 C 4.660156 -4.5 4.613281 -4.515625 4.5625 -4.546875 C 4.375 -4.660156 4.191406 -4.75 4.015625 -4.8125 C 3.835938 -4.875 3.640625 -4.90625 3.421875 -4.90625 C 3.066406 -4.90625 2.742188 -4.820312 2.453125 -4.65625 C 2.171875 -4.488281 1.945312 -4.253906 1.78125 -3.953125 C 1.613281 -3.660156 1.53125 -3.332031 1.53125 -2.96875 C 1.53125 -2.613281 1.613281 -2.285156 1.78125 -1.984375 C 1.945312 -1.691406 2.171875 -1.457031 2.453125 -1.28125 C 2.742188 -1.101562 3.066406 -1.015625 3.421875 -1.015625 C 3.640625 -1.015625 3.847656 -1.046875 4.046875 -1.109375 C 4.242188 -1.179688 4.410156 -1.273438 4.546875 -1.390625 Z M 4.546875 -1.390625 "/></g></g></g><g fill="#053262" fill-opacity="1"><g transform="translate(184.705768, 276.95936)"><g><path d="M 0.640625 -0.15625 L 0.640625 -5.78125 C 0.640625 -5.882812 0.691406 -5.9375 0.796875 -5.9375 L 4.71875 -5.9375 C 4.820312 -5.9375 4.875 -5.882812 4.875 -5.78125 L 4.875 -5 C 4.875 -4.894531 4.820312 -4.84375 4.71875 -4.84375 L 1.8125 -4.84375 L 1.8125 -3.625 L 4.03125 -3.625 C 4.144531 -3.625 4.203125 -3.570312 4.203125 -3.46875 L 4.203125 -2.71875 C 4.203125 -2.601562 4.144531 -2.546875 4.03125 -2.546875 L 1.8125 -2.546875 L 1.8125 -1.09375 L 4.78125 -1.09375 C 4.894531 -1.09375 4.953125 -1.035156 4.953125 -0.921875 L 4.953125 -0.15625 C 4.953125 -0.0507812 4.894531 0 4.78125 0 L 0.796875 0 C 0.691406 0 0.640625 -0.0507812 0.640625 -0.15625 Z M 0.640625 -0.15625 "/></g></g></g><g fill="#053262" fill-opacity="1"><g transform="translate(192.241812, 276.95936)"><g/></g></g><g fill="#053262" fill-opacity="1"><g transform="translate(197.145834, 276.95936)"><g><path d="M 0.515625 -0.90625 C 0.472656 -0.945312 0.441406 -0.992188 0.421875 -1.046875 C 0.410156 -1.097656 0.429688 -1.148438 0.484375 -1.203125 L 1.015625 -1.734375 C 1.054688 -1.765625 1.09375 -1.78125 1.125 -1.78125 C 1.144531 -1.78125 1.171875 -1.769531 1.203125 -1.75 C 1.234375 -1.738281 1.265625 -1.722656 1.296875 -1.703125 C 1.460938 -1.535156 1.65625 -1.378906 1.875 -1.234375 C 2.101562 -1.085938 2.375 -1.015625 2.6875 -1.015625 C 3 -1.015625 3.242188 -1.09375 3.421875 -1.25 C 3.597656 -1.40625 3.6875 -1.582031 3.6875 -1.78125 C 3.6875 -1.957031 3.617188 -2.097656 3.484375 -2.203125 C 3.359375 -2.304688 3.207031 -2.382812 3.03125 -2.4375 C 2.863281 -2.5 2.707031 -2.546875 2.5625 -2.578125 C 1.914062 -2.773438 1.421875 -3.015625 1.078125 -3.296875 C 0.742188 -3.578125 0.578125 -3.941406 0.578125 -4.390625 C 0.578125 -4.722656 0.664062 -5.007812 0.84375 -5.25 C 1.03125 -5.5 1.285156 -5.691406 1.609375 -5.828125 C 1.941406 -5.972656 2.320312 -6.046875 2.75 -6.046875 C 3.09375 -6.046875 3.425781 -5.960938 3.75 -5.796875 C 4.082031 -5.628906 4.363281 -5.425781 4.59375 -5.1875 C 4.695312 -5.09375 4.695312 -4.988281 4.59375 -4.875 L 4.15625 -4.40625 C 4.113281 -4.375 4.078125 -4.359375 4.046875 -4.359375 C 4.003906 -4.359375 3.96875 -4.367188 3.9375 -4.390625 C 3.90625 -4.410156 3.875 -4.429688 3.84375 -4.453125 C 3.757812 -4.523438 3.660156 -4.601562 3.546875 -4.6875 C 3.429688 -4.78125 3.300781 -4.859375 3.15625 -4.921875 C 3.007812 -4.984375 2.859375 -5.015625 2.703125 -5.015625 C 2.566406 -5.015625 2.425781 -4.992188 2.28125 -4.953125 C 2.144531 -4.921875 2.023438 -4.859375 1.921875 -4.765625 C 1.828125 -4.679688 1.78125 -4.550781 1.78125 -4.375 C 1.78125 -4.164062 1.890625 -4.007812 2.109375 -3.90625 C 2.328125 -3.800781 2.601562 -3.703125 2.9375 -3.609375 C 3.300781 -3.503906 3.632812 -3.378906 3.9375 -3.234375 C 4.238281 -3.085938 4.476562 -2.894531 4.65625 -2.65625 C 4.832031 -2.425781 4.921875 -2.125 4.921875 -1.75 C 4.921875 -1.382812 4.816406 -1.0625 4.609375 -0.78125 C 4.398438 -0.507812 4.125 -0.296875 3.78125 -0.140625 C 3.445312 0.00390625 3.085938 0.078125 2.703125 0.078125 C 2.296875 0.078125 1.894531 -0.0078125 1.5 -0.1875 C 1.113281 -0.375 0.785156 -0.613281 0.515625 -0.90625 Z M 0.515625 -0.90625 "/></g></g></g><g fill="#053262" fill-opacity="1"><g transform="translate(204.673877, 276.95936)"><g><path d="M 6.453125 -2.96875 C 6.453125 -2.550781 6.367188 -2.15625 6.203125 -1.78125 C 6.046875 -1.414062 5.828125 -1.09375 5.546875 -0.8125 C 5.273438 -0.53125 4.953125 -0.3125 4.578125 -0.15625 C 4.210938 0 3.816406 0.078125 3.390625 0.078125 C 2.972656 0.078125 2.578125 0 2.203125 -0.15625 C 1.835938 -0.3125 1.515625 -0.53125 1.234375 -0.8125 C 0.960938 -1.09375 0.75 -1.414062 0.59375 -1.78125 C 0.4375 -2.15625 0.359375 -2.550781 0.359375 -2.96875 C 0.359375 -3.394531 0.4375 -3.789062 0.59375 -4.15625 C 0.75 -4.53125 0.960938 -4.851562 1.234375 -5.125 C 1.515625 -5.40625 1.835938 -5.625 2.203125 -5.78125 C 2.578125 -5.945312 2.972656 -6.03125 3.390625 -6.03125 C 3.816406 -6.03125 4.210938 -5.945312 4.578125 -5.78125 C 4.953125 -5.625 5.273438 -5.40625 5.546875 -5.125 C 5.828125 -4.851562 6.046875 -4.53125 6.203125 -4.15625 C 6.367188 -3.789062 6.453125 -3.394531 6.453125 -2.96875 Z M 5.28125 -2.96875 C 5.28125 -3.332031 5.195312 -3.660156 5.03125 -3.953125 C 4.863281 -4.242188 4.640625 -4.472656 4.359375 -4.640625 C 4.078125 -4.816406 3.753906 -4.90625 3.390625 -4.90625 C 3.035156 -4.90625 2.71875 -4.816406 2.4375 -4.640625 C 2.15625 -4.472656 1.929688 -4.242188 1.765625 -3.953125 C 1.597656 -3.660156 1.515625 -3.332031 1.515625 -2.96875 C 1.515625 -2.613281 1.597656 -2.289062 1.765625 -2 C 1.929688 -1.707031 2.15625 -1.472656 2.4375 -1.296875 C 2.71875 -1.128906 3.035156 -1.046875 3.390625 -1.046875 C 3.753906 -1.046875 4.078125 -1.128906 4.359375 -1.296875 C 4.640625 -1.472656 4.863281 -1.707031 5.03125 -2 C 5.195312 -2.289062 5.28125 -2.613281 5.28125 -2.96875 Z M 5.28125 -2.96875 "/></g></g></g><g fill="#053262" fill-opacity="1"><g transform="translate(213.897937, 276.95936)"><g><path d="M 0.640625 -0.171875 L 0.640625 -5.765625 C 0.640625 -5.816406 0.65625 -5.859375 0.6875 -5.890625 C 0.726562 -5.921875 0.773438 -5.9375 0.828125 -5.9375 L 1.640625 -5.9375 C 1.753906 -5.9375 1.816406 -5.878906 1.828125 -5.765625 L 1.828125 -1.09375 L 4.15625 -1.09375 C 4.207031 -1.09375 4.25 -1.070312 4.28125 -1.03125 C 4.320312 -1 4.34375 -0.957031 4.34375 -0.90625 L 4.34375 -0.171875 C 4.34375 -0.0664062 4.28125 -0.0078125 4.15625 0 L 0.828125 0 C 0.703125 0 0.640625 -0.0546875 0.640625 -0.171875 Z M 0.640625 -0.171875 "/></g></g></g><g fill="#053262" fill-opacity="1"><g transform="translate(220.889979, 276.95936)"><g><path d="M 1.734375 -5.765625 L 1.734375 -2.34375 C 1.734375 -2.09375 1.785156 -1.863281 1.890625 -1.65625 C 2.003906 -1.457031 2.15625 -1.296875 2.34375 -1.171875 C 2.53125 -1.046875 2.753906 -0.984375 3.015625 -0.984375 C 3.265625 -0.984375 3.484375 -1.046875 3.671875 -1.171875 C 3.859375 -1.296875 4.003906 -1.457031 4.109375 -1.65625 C 4.210938 -1.863281 4.265625 -2.09375 4.265625 -2.34375 L 4.265625 -5.765625 C 4.265625 -5.804688 4.28125 -5.84375 4.3125 -5.875 C 4.351562 -5.914062 4.398438 -5.9375 4.453125 -5.9375 L 5.25 -5.9375 C 5.289062 -5.9375 5.332031 -5.921875 5.375 -5.890625 C 5.425781 -5.859375 5.453125 -5.816406 5.453125 -5.765625 L 5.453125 -2.34375 C 5.453125 -2.007812 5.382812 -1.691406 5.25 -1.390625 C 5.125 -1.097656 4.953125 -0.835938 4.734375 -0.609375 C 4.515625 -0.390625 4.253906 -0.21875 3.953125 -0.09375 C 3.660156 0.03125 3.347656 0.09375 3.015625 0.09375 C 2.671875 0.09375 2.347656 0.03125 2.046875 -0.09375 C 1.753906 -0.21875 1.492188 -0.390625 1.265625 -0.609375 C 1.046875 -0.835938 0.875 -1.097656 0.75 -1.390625 C 0.625 -1.691406 0.5625 -2.007812 0.5625 -2.34375 L 0.5625 -5.765625 C 0.5625 -5.804688 0.578125 -5.84375 0.609375 -5.875 C 0.640625 -5.914062 0.679688 -5.9375 0.734375 -5.9375 L 1.546875 -5.9375 C 1.585938 -5.9375 1.628906 -5.914062 1.671875 -5.875 C 1.710938 -5.84375 1.734375 -5.804688 1.734375 -5.765625 Z M 1.734375 -5.765625 "/></g></g></g><g fill="#053262" fill-opacity="1"><g transform="translate(229.306033, 276.95936)"><g><path d="M 0.171875 -5.03125 L 0.171875 -5.78125 C 0.171875 -5.882812 0.21875 -5.9375 0.3125 -5.9375 L 4.515625 -5.9375 C 4.628906 -5.9375 4.6875 -5.882812 4.6875 -5.78125 L 4.6875 -5.03125 C 4.6875 -4.914062 4.628906 -4.859375 4.515625 -4.859375 L 2.984375 -4.859375 L 2.984375 -0.15625 C 2.984375 -0.0507812 2.929688 0 2.828125 0 L 1.96875 0 C 1.863281 0 1.8125 -0.0507812 1.8125 -0.15625 L 1.8125 -4.859375 L 0.3125 -4.859375 C 0.21875 -4.859375 0.171875 -4.914062 0.171875 -5.03125 Z M 0.171875 -5.03125 "/></g></g></g><g fill="#053262" fill-opacity="1"><g transform="translate(236.594076, 276.95936)"><g><path d="M 0.640625 -0.15625 L 0.640625 -5.765625 C 0.640625 -5.878906 0.695312 -5.9375 0.8125 -5.9375 L 1.671875 -5.9375 C 1.773438 -5.9375 1.828125 -5.878906 1.828125 -5.765625 L 1.828125 -0.15625 C 1.828125 -0.0507812 1.773438 0 1.671875 0 L 0.8125 0 C 0.695312 0 0.640625 -0.0507812 0.640625 -0.15625 Z M 0.640625 -0.15625 "/></g></g></g><g fill="#053262" fill-opacity="1"><g transform="translate(241.4661, 276.95936)"><g><path d="M 6.453125 -2.96875 C 6.453125 -2.550781 6.367188 -2.15625 6.203125 -1.78125 C 6.046875 -1.414062 5.828125 -1.09375 5.546875 -0.8125 C 5.273438 -0.53125 4.953125 -0.3125 4.578125 -0.15625 C 4.210938 0 3.816406 0.078125 3.390625 0.078125 C 2.972656 0.078125 2.578125 0 2.203125 -0.15625 C 1.835938 -0.3125 1.515625 -0.53125 1.234375 -0.8125 C 0.960938 -1.09375 0.75 -1.414062 0.59375 -1.78125 C 0.4375 -2.15625 0.359375 -2.550781 0.359375 -2.96875 C 0.359375 -3.394531 0.4375 -3.789062 0.59375 -4.15625 C 0.75 -4.53125 0.960938 -4.851562 1.234375 -5.125 C 1.515625 -5.40625 1.835938 -5.625 2.203125 -5.78125 C 2.578125 -5.945312 2.972656 -6.03125 3.390625 -6.03125 C 3.816406 -6.03125 4.210938 -5.945312 4.578125 -5.78125 C 4.953125 -5.625 5.273438 -5.40625 5.546875 -5.125 C 5.828125 -4.851562 6.046875 -4.53125 6.203125 -4.15625 C 6.367188 -3.789062 6.453125 -3.394531 6.453125 -2.96875 Z M 5.28125 -2.96875 C 5.28125 -3.332031 5.195312 -3.660156 5.03125 -3.953125 C 4.863281 -4.242188 4.640625 -4.472656 4.359375 -4.640625 C 4.078125 -4.816406 3.753906 -4.90625 3.390625 -4.90625 C 3.035156 -4.90625 2.71875 -4.816406 2.4375 -4.640625 C 2.15625 -4.472656 1.929688 -4.242188 1.765625 -3.953125 C 1.597656 -3.660156 1.515625 -3.332031 1.515625 -2.96875 C 1.515625 -2.613281 1.597656 -2.289062 1.765625 -2 C 1.929688 -1.707031 2.15625 -1.472656 2.4375 -1.296875 C 2.71875 -1.128906 3.035156 -1.046875 3.390625 -1.046875 C 3.753906 -1.046875 4.078125 -1.128906 4.359375 -1.296875 C 4.640625 -1.472656 4.863281 -1.707031 5.03125 -2 C 5.195312 -2.289062 5.28125 -2.613281 5.28125 -2.96875 Z M 5.28125 -2.96875 "/></g></g></g><g fill="#053262" fill-opacity="1"><g transform="translate(250.69016, 276.95936)"><g><path d="M 0.640625 -0.171875 L 0.640625 -5.765625 C 0.640625 -5.804688 0.65625 -5.84375 0.6875 -5.875 C 0.71875 -5.914062 0.765625 -5.9375 0.828125 -5.9375 L 1.765625 -5.9375 C 1.804688 -5.9375 1.847656 -5.925781 1.890625 -5.90625 C 1.929688 -5.882812 1.960938 -5.851562 1.984375 -5.8125 L 4.625 -2.03125 L 4.625 -5.8125 C 4.632812 -5.863281 4.65625 -5.894531 4.6875 -5.90625 C 4.726562 -5.925781 4.765625 -5.9375 4.796875 -5.9375 L 5.609375 -5.9375 C 5.648438 -5.9375 5.691406 -5.921875 5.734375 -5.890625 C 5.773438 -5.859375 5.796875 -5.816406 5.796875 -5.765625 L 5.796875 -0.171875 C 5.796875 -0.0546875 5.734375 0 5.609375 0 L 4.8125 0 C 4.75 0 4.703125 -0.0078125 4.671875 -0.03125 C 4.640625 -0.0625 4.609375 -0.09375 4.578125 -0.125 L 1.8125 -4.125 L 1.8125 -0.171875 C 1.8125 -0.0546875 1.75 0 1.625 0 L 0.828125 0 C 0.703125 0 0.640625 -0.0546875 0.640625 -0.171875 Z M 0.640625 -0.171875 "/></g></g></g><g fill="#053262" fill-opacity="1"><g transform="translate(259.434218, 276.95936)"><g><path d="M 0.515625 -0.90625 C 0.472656 -0.945312 0.441406 -0.992188 0.421875 -1.046875 C 0.410156 -1.097656 0.429688 -1.148438 0.484375 -1.203125 L 1.015625 -1.734375 C 1.054688 -1.765625 1.09375 -1.78125 1.125 -1.78125 C 1.144531 -1.78125 1.171875 -1.769531 1.203125 -1.75 C 1.234375 -1.738281 1.265625 -1.722656 1.296875 -1.703125 C 1.460938 -1.535156 1.65625 -1.378906 1.875 -1.234375 C 2.101562 -1.085938 2.375 -1.015625 2.6875 -1.015625 C 3 -1.015625 3.242188 -1.09375 3.421875 -1.25 C 3.597656 -1.40625 3.6875 -1.582031 3.6875 -1.78125 C 3.6875 -1.957031 3.617188 -2.097656 3.484375 -2.203125 C 3.359375 -2.304688 3.207031 -2.382812 3.03125 -2.4375 C 2.863281 -2.5 2.707031 -2.546875 2.5625 -2.578125 C 1.914062 -2.773438 1.421875 -3.015625 1.078125 -3.296875 C 0.742188 -3.578125 0.578125 -3.941406 0.578125 -4.390625 C 0.578125 -4.722656 0.664062 -5.007812 0.84375 -5.25 C 1.03125 -5.5 1.285156 -5.691406 1.609375 -5.828125 C 1.941406 -5.972656 2.320312 -6.046875 2.75 -6.046875 C 3.09375 -6.046875 3.425781 -5.960938 3.75 -5.796875 C 4.082031 -5.628906 4.363281 -5.425781 4.59375 -5.1875 C 4.695312 -5.09375 4.695312 -4.988281 4.59375 -4.875 L 4.15625 -4.40625 C 4.113281 -4.375 4.078125 -4.359375 4.046875 -4.359375 C 4.003906 -4.359375 3.96875 -4.367188 3.9375 -4.390625 C 3.90625 -4.410156 3.875 -4.429688 3.84375 -4.453125 C 3.757812 -4.523438 3.660156 -4.601562 3.546875 -4.6875 C 3.429688 -4.78125 3.300781 -4.859375 3.15625 -4.921875 C 3.007812 -4.984375 2.859375 -5.015625 2.703125 -5.015625 C 2.566406 -5.015625 2.425781 -4.992188 2.28125 -4.953125 C 2.144531 -4.921875 2.023438 -4.859375 1.921875 -4.765625 C 1.828125 -4.679688 1.78125 -4.550781 1.78125 -4.375 C 1.78125 -4.164062 1.890625 -4.007812 2.109375 -3.90625 C 2.328125 -3.800781 2.601562 -3.703125 2.9375 -3.609375 C 3.300781 -3.503906 3.632812 -3.378906 3.9375 -3.234375 C 4.238281 -3.085938 4.476562 -2.894531 4.65625 -2.65625 C 4.832031 -2.425781 4.921875 -2.125 4.921875 -1.75 C 4.921875 -1.382812 4.816406 -1.0625 4.609375 -0.78125 C 4.398438 -0.507812 4.125 -0.296875 3.78125 -0.140625 C 3.445312 0.00390625 3.085938 0.078125 2.703125 0.078125 C 2.296875 0.078125 1.894531 -0.0078125 1.5 -0.1875 C 1.113281 -0.375 0.785156 -0.613281 0.515625 -0.90625 Z M 0.515625 -0.90625 "/></g></g></g><g fill="#053262" fill-opacity="1"><g transform="translate(64.249036, 263.093011)"><g><path d="M 13.3125 -20.65625 L 13.3125 -16.515625 L 6.203125 -16.515625 L 6.203125 -12.421875 L 13.015625 -12.421875 L 13.015625 -8.28125 L 6.203125 -8.28125 L 6.203125 -4.125 L 13.3125 -4.125 L 13.3125 0 L 1.5 0 L 1.5 -20.65625 Z M 13.3125 -20.65625 "/></g></g></g><g fill="#053262" fill-opacity="1"><g transform="translate(81.263548, 263.093011)"><g><path d="M 11.984375 -20.65625 L 20.328125 0 L 15.265625 0 L 13.75 -4.125 L 5.875 -4.125 L 4.359375 0 L -0.703125 0 L 7.640625 -20.65625 Z M 12.140625 -8.265625 L 9.84375 -14.265625 L 9.78125 -14.265625 L 7.484375 -8.265625 Z M 12.140625 -8.265625 "/></g></g></g><g fill="#053262" fill-opacity="1"><g transform="translate(103.382034, 263.093011)"><g><path d="M 9.109375 -21.03125 C 10.222656 -21.03125 11.316406 -20.863281 12.390625 -20.53125 C 13.460938 -20.207031 14.253906 -19.890625 14.765625 -19.578125 L 15.515625 -19.078125 L 13.609375 -15.3125 C 13.460938 -15.414062 13.253906 -15.546875 12.984375 -15.703125 C 12.722656 -15.859375 12.222656 -16.070312 11.484375 -16.34375 C 10.753906 -16.613281 10.070312 -16.75 9.4375 -16.75 C 8.65625 -16.75 8.050781 -16.582031 7.625 -16.25 C 7.195312 -15.914062 6.984375 -15.460938 6.984375 -14.890625 C 6.984375 -14.609375 7.082031 -14.347656 7.28125 -14.109375 C 7.476562 -13.867188 7.816406 -13.609375 8.296875 -13.328125 C 8.785156 -13.054688 9.210938 -12.835938 9.578125 -12.671875 C 9.953125 -12.503906 10.523438 -12.253906 11.296875 -11.921875 C 12.628906 -11.347656 13.765625 -10.570312 14.703125 -9.59375 C 15.648438 -8.625 16.125 -7.519531 16.125 -6.28125 C 16.125 -5.09375 15.910156 -4.054688 15.484375 -3.171875 C 15.054688 -2.296875 14.46875 -1.601562 13.71875 -1.09375 C 12.976562 -0.59375 12.15625 -0.222656 11.25 0.015625 C 10.351562 0.253906 9.378906 0.375 8.328125 0.375 C 7.429688 0.375 6.546875 0.28125 5.671875 0.09375 C 4.804688 -0.0820312 4.082031 -0.304688 3.5 -0.578125 C 2.914062 -0.859375 2.390625 -1.128906 1.921875 -1.390625 C 1.453125 -1.660156 1.113281 -1.890625 0.90625 -2.078125 L 0.578125 -2.359375 L 2.921875 -6.3125 C 3.128906 -6.144531 3.40625 -5.929688 3.75 -5.671875 C 4.101562 -5.410156 4.722656 -5.0625 5.609375 -4.625 C 6.503906 -4.195312 7.296875 -3.984375 7.984375 -3.984375 C 9.972656 -3.984375 10.96875 -4.65625 10.96875 -6 C 10.96875 -6.289062 10.894531 -6.554688 10.75 -6.796875 C 10.601562 -7.035156 10.351562 -7.273438 10 -7.515625 C 9.644531 -7.765625 9.328125 -7.957031 9.046875 -8.09375 C 8.773438 -8.238281 8.328125 -8.457031 7.703125 -8.75 C 7.078125 -9.039062 6.613281 -9.257812 6.3125 -9.40625 C 5.0625 -10.03125 4.09375 -10.800781 3.40625 -11.71875 C 2.71875 -12.644531 2.375 -13.644531 2.375 -14.71875 C 2.375 -16.570312 3.054688 -18.085938 4.421875 -19.265625 C 5.796875 -20.441406 7.359375 -21.03125 9.109375 -21.03125 Z M 9.109375 -21.03125 "/></g></g></g><g fill="#053262" fill-opacity="1"><g transform="translate(122.69834, 263.093011)"><g><path d="M -0.75 -20.65625 L 4.90625 -20.65625 L 9.21875 -14.046875 L 13.515625 -20.65625 L 19.171875 -20.65625 L 11.5625 -9.265625 L 11.5625 0 L 6.859375 0 L 6.859375 -9.265625 Z M -0.75 -20.65625 "/></g></g></g><g fill="#053262" fill-opacity="1"><g transform="translate(143.615896, 263.093011)"><g/></g></g><g fill="#053262" fill-opacity="1"><g transform="translate(152.949433, 263.093011)"><g><path d="M 9.109375 -21.03125 C 10.222656 -21.03125 11.316406 -20.863281 12.390625 -20.53125 C 13.460938 -20.207031 14.253906 -19.890625 14.765625 -19.578125 L 15.515625 -19.078125 L 13.609375 -15.3125 C 13.460938 -15.414062 13.253906 -15.546875 12.984375 -15.703125 C 12.722656 -15.859375 12.222656 -16.070312 11.484375 -16.34375 C 10.753906 -16.613281 10.070312 -16.75 9.4375 -16.75 C 8.65625 -16.75 8.050781 -16.582031 7.625 -16.25 C 7.195312 -15.914062 6.984375 -15.460938 6.984375 -14.890625 C 6.984375 -14.609375 7.082031 -14.347656 7.28125 -14.109375 C 7.476562 -13.867188 7.816406 -13.609375 8.296875 -13.328125 C 8.785156 -13.054688 9.210938 -12.835938 9.578125 -12.671875 C 9.953125 -12.503906 10.523438 -12.253906 11.296875 -11.921875 C 12.628906 -11.347656 13.765625 -10.570312 14.703125 -9.59375 C 15.648438 -8.625 16.125 -7.519531 16.125 -6.28125 C 16.125 -5.09375 15.910156 -4.054688 15.484375 -3.171875 C 15.054688 -2.296875 14.46875 -1.601562 13.71875 -1.09375 C 12.976562 -0.59375 12.15625 -0.222656 11.25 0.015625 C 10.351562 0.253906 9.378906 0.375 8.328125 0.375 C 7.429688 0.375 6.546875 0.28125 5.671875 0.09375 C 4.804688 -0.0820312 4.082031 -0.304688 3.5 -0.578125 C 2.914062 -0.859375 2.390625 -1.128906 1.921875 -1.390625 C 1.453125 -1.660156 1.113281 -1.890625 0.90625 -2.078125 L 0.578125 -2.359375 L 2.921875 -6.3125 C 3.128906 -6.144531 3.40625 -5.929688 3.75 -5.671875 C 4.101562 -5.410156 4.722656 -5.0625 5.609375 -4.625 C 6.503906 -4.195312 7.296875 -3.984375 7.984375 -3.984375 C 9.972656 -3.984375 10.96875 -4.65625 10.96875 -6 C 10.96875 -6.289062 10.894531 -6.554688 10.75 -6.796875 C 10.601562 -7.035156 10.351562 -7.273438 10 -7.515625 C 9.644531 -7.765625 9.328125 -7.957031 9.046875 -8.09375 C 8.773438 -8.238281 8.328125 -8.457031 7.703125 -8.75 C 7.078125 -9.039062 6.613281 -9.257812 6.3125 -9.40625 C 5.0625 -10.03125 4.09375 -10.800781 3.40625 -11.71875 C 2.71875 -12.644531 2.375 -13.644531 2.375 -14.71875 C 2.375 -16.570312 3.054688 -18.085938 4.421875 -19.265625 C 5.796875 -20.441406 7.359375 -21.03125 9.109375 -21.03125 Z M 9.109375 -21.03125 "/></g></g></g><g fill="#053262" fill-opacity="1"><g transform="translate(172.265737, 263.093011)"><g><path d="M 6.203125 -8.28125 L 6.203125 0 L 1.5 0 L 1.5 -20.65625 L 6.203125 -20.65625 L 6.203125 -12.421875 L 12.859375 -12.421875 L 12.859375 -20.65625 L 17.578125 -20.65625 L 17.578125 0 L 12.859375 0 L 12.859375 -8.28125 Z M 6.203125 -8.28125 "/></g></g></g><g fill="#053262" fill-opacity="1"><g transform="translate(193.833798, 263.093011)"><g><path d="M 0.578125 -10.34375 C 0.578125 -13.320312 1.59375 -15.847656 3.625 -17.921875 C 5.664062 -19.992188 8.117188 -21.03125 10.984375 -21.03125 C 13.867188 -21.03125 16.320312 -20 18.34375 -17.9375 C 20.363281 -15.875 21.375 -13.34375 21.375 -10.34375 C 21.375 -7.320312 20.378906 -4.78125 18.390625 -2.71875 C 16.410156 -0.65625 13.941406 0.375 10.984375 0.375 C 7.960938 0.375 5.472656 -0.644531 3.515625 -2.6875 C 1.554688 -4.726562 0.578125 -7.28125 0.578125 -10.34375 Z M 5.65625 -10.34375 C 5.65625 -9.25 5.820312 -8.253906 6.15625 -7.359375 C 6.488281 -6.472656 7.070312 -5.722656 7.90625 -5.109375 C 8.738281 -4.492188 9.765625 -4.1875 10.984375 -4.1875 C 12.734375 -4.1875 14.054688 -4.785156 14.953125 -5.984375 C 15.847656 -7.179688 16.296875 -8.632812 16.296875 -10.34375 C 16.296875 -12.019531 15.835938 -13.460938 14.921875 -14.671875 C 14.015625 -15.890625 12.703125 -16.5 10.984375 -16.5 C 9.285156 -16.5 7.972656 -15.890625 7.046875 -14.671875 C 6.117188 -13.460938 5.65625 -12.019531 5.65625 -10.34375 Z M 5.65625 -10.34375 "/></g></g></g><g fill="#053262" fill-opacity="1"><g transform="translate(218.279098, 263.093011)"><g><path d="M 1.5 -20.65625 L 9.03125 -20.65625 C 11.132812 -20.65625 12.835938 -20.109375 14.140625 -19.015625 C 15.441406 -17.929688 16.09375 -16.351562 16.09375 -14.28125 C 16.09375 -12.21875 15.429688 -10.597656 14.109375 -9.421875 C 12.796875 -8.242188 11.101562 -7.65625 9.03125 -7.65625 L 6.203125 -7.65625 L 6.203125 0 L 1.5 0 Z M 6.203125 -11.421875 L 7.53125 -11.421875 C 8.582031 -11.421875 9.445312 -11.628906 10.125 -12.046875 C 10.800781 -12.472656 11.140625 -13.171875 11.140625 -14.140625 C 11.140625 -15.128906 10.800781 -15.832031 10.125 -16.25 C 9.445312 -16.675781 8.582031 -16.890625 7.53125 -16.890625 L 6.203125 -16.890625 Z M 6.203125 -11.421875 "/></g></g></g><g fill="#053262" fill-opacity="1"><g transform="translate(237.445283, 263.093011)"><g><path d="M 1.5 -20.65625 L 9.03125 -20.65625 C 11.132812 -20.65625 12.835938 -20.109375 14.140625 -19.015625 C 15.441406 -17.929688 16.09375 -16.351562 16.09375 -14.28125 C 16.09375 -12.21875 15.429688 -10.597656 14.109375 -9.421875 C 12.796875 -8.242188 11.101562 -7.65625 9.03125 -7.65625 L 6.203125 -7.65625 L 6.203125 0 L 1.5 0 Z M 6.203125 -11.421875 L 7.53125 -11.421875 C 8.582031 -11.421875 9.445312 -11.628906 10.125 -12.046875 C 10.800781 -12.472656 11.140625 -13.171875 11.140625 -14.140625 C 11.140625 -15.128906 10.800781 -15.832031 10.125 -16.25 C 9.445312 -16.675781 8.582031 -16.890625 7.53125 -16.890625 L 6.203125 -16.890625 Z M 6.203125 -11.421875 "/></g></g></g><g fill="#053262" fill-opacity="1"><g transform="translate(256.611458, 263.093011)"><g><path d="M 6.203125 -20.65625 L 6.203125 0 L 1.5 0 L 1.5 -20.65625 Z M 6.203125 -20.65625 "/></g></g></g><g fill="#053262" fill-opacity="1"><g transform="translate(266.820663, 263.093011)"><g><path d="M 6.203125 -12.8125 L 6.203125 0 L 1.5 0 L 1.5 -20.65625 L 6.203125 -20.65625 L 14.421875 -7.828125 L 14.46875 -7.828125 L 14.46875 -20.65625 L 19.171875 -20.65625 L 19.171875 0 L 14.46875 0 L 6.265625 -12.8125 Z M 6.203125 -12.8125 "/></g></g></g><g fill="#053262" fill-opacity="1"><g transform="translate(289.989958, 263.093011)"><g><path d="M 20.171875 -11.5625 L 20.171875 -7.078125 C 19.640625 -4.628906 18.472656 -2.773438 16.671875 -1.515625 C 14.867188 -0.253906 12.859375 0.375 10.640625 0.375 C 7.847656 0.375 5.472656 -0.664062 3.515625 -2.75 C 1.554688 -4.832031 0.578125 -7.351562 0.578125 -10.3125 C 0.578125 -13.3125 1.535156 -15.847656 3.453125 -17.921875 C 5.367188 -19.992188 7.765625 -21.03125 10.640625 -21.03125 C 13.992188 -21.03125 16.644531 -19.851562 18.59375 -17.5 L 15.515625 -14.125 C 14.421875 -15.882812 12.882812 -16.765625 10.90625 -16.765625 C 9.457031 -16.765625 8.21875 -16.132812 7.1875 -14.875 C 6.164062 -13.613281 5.65625 -12.09375 5.65625 -10.3125 C 5.65625 -8.5625 6.164062 -7.0625 7.1875 -5.8125 C 8.21875 -4.570312 9.457031 -3.953125 10.90625 -3.953125 C 12.113281 -3.953125 13.160156 -4.3125 14.046875 -5.03125 C 14.941406 -5.757812 15.390625 -6.726562 15.390625 -7.9375 L 10.640625 -7.9375 L 10.640625 -11.5625 Z M 20.171875 -11.5625 "/></g></g></g></svg>